<svg version="1.1" xmlns="http://www.w3.org/2000/svg" viewBox="0 0 1904.571428571429 358.57142857142867" width="1904.571428571429" height="358.57142857142867" filter="invert(93%) hue-rotate(180deg)">
  <!-- svg-source:excalidraw -->
  
  <defs>
    <style class="style-fonts">
      
    </style>
    
  </defs>
  <g stroke-opacity="0.6" fill-opacity="0.6" transform="translate(342 60.571428571428555) rotate(0 -138 127)" stroke="none"><path fill="#f08c00" d="M -2.03,6.78 Q -2.03,6.78 -7.85,5.28 -13.66,3.79 -20.82,2.47 -27.97,1.15 -38.98,-0.22 -49.98,-1.59 -76.92,-2.26 -103.87,-2.93 -142.42,-3.28 -180.97,-3.64 -212.89,-3.83 -244.81,-4.03 -264.71,-4.15 -284.60,-4.26 -295.92,-4.34 -307.25,-4.41 -311.52,-3.45 -315.78,-2.48 -313.38,7.29 -310.97,17.08 -309.95,42.21 -308.93,67.35 -310.35,101.65 -311.76,135.95 -313.59,161.98 -315.42,188.02 -317.98,206.71 -320.55,225.41 -322.26,236.19 -323.96,246.97 -324.19,252.07 -324.42,257.18 -315.43,254.28 -306.44,251.38 -295.28,249.76 -284.12,248.14 -262.45,245.21 -240.78,242.28 -213.03,239.94 -185.28,237.60 -155.69,235.50 -126.10,233.41 -95.01,232.55 -63.93,231.69 -44.41,231.35 -24.90,231.01 -9.39,232.62 6.12,234.24 18.31,235.51 30.51,236.77 37.37,237.00 44.24,237.23 47.78,237.00 51.33,236.77 52.14,236.93 52.96,237.10 53.72,237.45 54.47,237.80 55.12,238.33 55.77,238.85 56.27,239.52 56.77,240.18 57.10,240.95 57.43,241.71 57.57,242.53 57.71,243.35 57.65,244.19 57.58,245.02 57.32,245.81 57.06,246.60 56.62,247.31 56.18,248.01 55.58,248.59 54.98,249.17 54.26,249.59 53.54,250.01 52.74,250.25 51.94,250.48 51.11,250.52 50.28,250.56 46.92,241.61 43.57,232.66 41.47,224.00 39.38,215.34 37.32,204.89 35.27,194.44 32.77,185.05 30.28,175.66 28.58,163.17 26.88,150.68 26.20,140.75 25.51,130.81 24.94,123.72 24.37,116.63 8.86,113.58 -6.64,110.52 -23.32,108.73 -40.01,106.94 -69.01,103.21 -98.01,99.48 -120.62,96.69 -143.23,93.90 -155.89,91.50 -168.56,89.09 -172.96,88.49 -177.37,87.89 -179.35,88.97 -181.33,90.04 -182.16,89.76 -182.99,89.48 -183.73,89.01 -184.48,88.54 -185.08,87.91 -185.69,87.28 -186.13,86.52 -186.57,85.76 -186.81,84.91 -187.06,84.07 -187.09,83.19 -187.13,82.32 -186.95,81.46 -186.78,80.60 -186.40,79.80 -186.03,79.01 -185.47,78.33 -184.91,77.65 -184.21,77.12 -183.51,76.59 -182.70,76.25 -181.90,75.91 -181.03,75.77 -180.16,75.62 -179.29,75.70 -178.41,75.77 -175.06,78.66 -171.72,81.56 -169.32,88.45 -166.92,95.34 -165.33,105.67 -163.75,116.01 -162.60,129.16 -161.45,142.31 -160.66,148.96 -159.87,155.61 -158.75,161.50 -157.64,167.39 -157.76,168.74 -157.88,170.09 -158.43,171.33 -158.98,172.57 -159.89,173.57 -160.80,174.57 -161.99,175.23 -163.18,175.89 -164.51,176.13 -165.84,176.37 -167.19,176.18 -168.53,175.98 -169.74,175.37 -170.94,174.76 -171.89,173.79 -172.84,172.82 -173.44,171.60 -174.03,170.38 -174.20,169.04 -174.37,167.69 -174.10,166.36 -173.83,165.03 -173.16,163.86 -172.48,162.69 -171.46,161.79 -170.44,160.89 -169.19,160.37 -167.94,159.84 -166.59,159.75 -165.24,159.65 -163.93,159.99 -162.61,160.33 -161.48,161.07 -160.34,161.81 -159.50,162.87 -158.66,163.94 -158.21,165.21 -157.75,166.49 -157.73,167.85 -157.70,169.20 -158.11,170.49 -158.52,171.79 -159.32,172.88 -160.12,173.97 -161.23,174.76 -162.34,175.54 -163.64,175.92 -164.94,176.31 -166.30,176.26 -167.65,176.21 -168.92,175.73 -170.19,175.25 -171.24,174.39 -172.28,173.53 -173.00,172.38 -173.72,171.23 -174.04,169.92 -174.35,168.60 -174.35,168.60 -174.35,168.60 -174.09,162.72 -173.82,156.83 -174.19,150.26 -174.56,143.69 -176.12,131.14 -177.68,118.59 -179.78,109.05 -181.87,99.51 -181.60,94.78 -181.32,90.04 -182.16,89.76 -182.99,89.48 -183.73,89.01 -184.47,88.54 -185.08,87.91 -185.69,87.28 -186.13,86.52 -186.57,85.76 -186.81,84.91 -187.06,84.07 -187.09,83.19 -187.13,82.32 -186.95,81.46 -186.78,80.60 -186.40,79.80 -186.03,79.01 -185.47,78.33 -184.92,77.65 -184.21,77.12 -183.51,76.59 -182.70,76.25 -181.90,75.91 -181.03,75.77 -180.16,75.62 -179.29,75.70 -178.41,75.77 -177.52,75.36 -176.62,74.95 -171.55,76.29 -166.48,77.63 -154.15,79.77 -141.82,81.91 -119.15,84.41 -96.48,86.91 -67.63,90.21 -38.79,93.52 -22.20,94.75 -5.62,95.98 6.68,96.48 18.98,96.97 25.88,98.99 32.78,101.01 34.65,108.55 36.53,116.10 36.57,123.05 36.61,129.99 37.37,139.55 38.13,149.10 39.84,160.82 41.54,172.55 44.34,182.24 47.13,191.94 49.42,202.05 51.71,212.16 51.52,224.46 51.33,236.77 52.14,236.93 52.96,237.10 53.72,237.45 54.47,237.80 55.12,238.33 55.77,238.85 56.27,239.52 56.77,240.18 57.10,240.94 57.43,241.71 57.57,242.53 57.71,243.35 57.65,244.18 57.58,245.02 57.32,245.81 57.06,246.60 56.62,247.31 56.18,248.01 55.58,248.59 54.98,249.17 54.26,249.59 53.54,250.01 52.74,250.25 51.94,250.48 51.11,250.52 50.28,250.56 46.80,249.88 43.32,249.21 36.37,248.39 29.41,247.56 17.20,246.36 5.00,245.15 -9.84,243.65 -24.68,242.16 -44.13,242.61 -63.58,243.07 -94.40,244.08 -125.23,245.10 -154.71,247.41 -184.19,249.73 -211.57,252.34 -238.94,254.96 -260.39,258.28 -281.83,261.61 -293.65,263.89 -305.46,266.17 -313.90,266.96 -322.33,267.75 -327.15,266.68 -331.98,265.61 -334.76,260.61 -337.55,255.62 -336.41,250.45 -335.28,245.27 -333.77,234.57 -332.25,223.87 -329.97,205.55 -327.68,187.24 -326.19,161.36 -324.71,135.49 -323.74,101.77 -322.77,68.05 -324.26,44.08 -325.75,20.11 -327.62,11.43 -329.48,2.74 -327.88,-3.58 -326.27,-9.91 -322.12,-12.55 -317.97,-15.19 -312.61,-15.36 -307.24,-15.53 -295.91,-15.57 -284.58,-15.62 -264.68,-15.66 -244.78,-15.70 -212.85,-15.73 -180.91,-15.75 -142.28,-15.69 -103.64,-15.64 -76.14,-15.35 -48.64,-15.06 -37.06,-14.17 -25.49,-13.28 -17.41,-11.98 -9.33,-10.69 -3.64,-8.73 2.03,-6.78 2.81,-6.43 3.59,-6.09 4.27,-5.57 4.95,-5.05 5.48,-4.39 6.01,-3.72 6.37,-2.95 6.73,-2.17 6.89,-1.33 7.06,-0.50 7.01,0.35 6.97,1.20 6.73,2.01 6.48,2.83 6.05,3.57 5.61,4.30 5.02,4.91 4.42,5.52 3.69,5.97 2.97,6.42 2.16,6.68 1.34,6.94 0.49,7.00 -0.35,7.07 -1.19,6.92 -2.03,6.78 -2.03,6.78 L -2.03,6.78 Z"></path></g><g stroke-opacity="0.6" fill-opacity="0.6" transform="translate(461.71428571428567 58.571428571428555) rotate(0 98.5714285714285 115.00000000000003)" stroke="none"><path fill="#e03131" d="M 6.50,-1.18 Q 6.50,-1.18 7.96,7.88 9.42,16.95 11.20,25.63 12.98,34.32 16.57,50.36 20.16,66.40 23.72,82.71 27.28,99.01 31.63,117.39 35.99,135.77 39.92,158.56 43.84,181.35 46.32,198.85 48.80,216.35 50.65,228.23 52.51,240.11 53.65,246.88 54.78,253.65 54.44,259.14 54.09,264.62 58.50,261.75 62.91,258.88 67.35,257.57 71.79,256.27 79.20,254.61 86.60,252.95 95.70,252.04 104.80,251.13 116.09,250.51 127.38,249.89 137.16,249.75 146.94,249.60 153.11,249.16 159.29,248.73 164.41,248.34 169.53,247.94 176.62,247.29 183.71,246.64 181.83,240.92 179.94,235.21 180.23,224.05 180.51,212.89 179.60,197.98 178.70,183.06 178.02,154.64 177.34,126.22 177.56,97.68 177.78,69.15 179.60,44.13 181.42,19.12 183.48,2.68 185.55,-13.75 187.31,-23.28 189.06,-32.82 190.04,-39.80 191.02,-46.78 191.35,-47.73 191.68,-48.68 192.30,-49.47 192.91,-50.26 193.75,-50.82 194.59,-51.37 195.56,-51.63 196.53,-51.89 197.53,-51.83 198.54,-51.76 199.47,-51.38 200.40,-51.00 201.16,-50.34 201.92,-49.68 202.42,-48.81 202.93,-47.95 203.14,-46.96 203.34,-45.98 203.23,-44.98 203.11,-43.98 202.67,-43.08 202.24,-42.17 201.54,-41.45 200.84,-40.72 199.95,-40.26 199.06,-39.80 198.06,-39.65 197.07,-39.50 196.08,-39.67 195.09,-39.84 194.21,-40.32 193.33,-40.80 192.64,-41.54 191.96,-42.28 191.55,-43.20 191.13,-44.11 191.04,-45.11 190.94,-46.11 191.17,-47.09 191.39,-48.07 191.92,-48.93 192.45,-49.78 193.22,-50.42 193.99,-51.07 194.93,-51.43 195.87,-51.79 196.87,-51.83 197.88,-51.88 198.84,-51.60 199.81,-51.32 200.63,-50.75 201.46,-50.17 202.06,-49.37 202.66,-48.56 202.97,-47.60 203.28,-46.65 203.27,-45.64 203.26,-44.64 203.26,-44.64 203.26,-44.64 201.81,-37.74 200.36,-30.84 198.83,-21.60 197.31,-12.36 195.52,3.78 193.72,19.93 192.26,44.54 190.80,69.14 191.04,97.44 191.28,125.73 192.56,153.73 193.85,181.72 195.64,197.10 197.43,212.49 198.26,224.31 199.09,236.13 198.82,243.74 198.55,251.36 196.52,255.45 194.48,259.55 189.13,262.18 183.79,264.82 176.77,264.26 169.75,263.69 164.73,263.45 159.70,263.20 153.60,263.11 147.51,263.02 138.07,263.69 128.63,264.35 117.91,265.64 107.18,266.93 99.26,268.59 91.35,270.25 80.25,273.32 69.16,276.39 64.26,277.69 59.36,278.98 52.42,276.59 45.47,274.20 44.16,264.64 42.84,255.08 42.38,248.43 41.92,241.78 40.02,229.83 38.11,217.88 35.60,200.55 33.10,183.22 29.17,160.78 25.23,138.35 20.76,119.90 16.28,101.46 12.59,85.23 8.90,69.00 5.11,52.94 1.31,36.89 -0.77,28.04 -2.85,19.18 -4.68,10.18 -6.50,1.18 -6.55,0.38 -6.60,-0.40 -6.45,-1.19 -6.31,-1.97 -5.98,-2.70 -5.65,-3.42 -5.16,-4.05 -4.66,-4.68 -4.04,-5.17 -3.41,-5.66 -2.68,-5.99 -1.95,-6.31 -1.17,-6.45 -0.38,-6.60 0.40,-6.55 1.20,-6.50 1.96,-6.26 2.72,-6.02 3.40,-5.61 4.08,-5.19 4.64,-4.63 5.21,-4.07 5.62,-3.38 6.03,-2.70 6.27,-1.94 6.50,-1.18 6.50,-1.18 L 6.50,-1.18 Z"></path></g><g stroke-opacity="0.6" fill-opacity="0.6" transform="translate(740.2857142857142 308.57142857142867) rotate(0 120 -149.28571428571433)" stroke="none"><path fill="#f08c00" d="M -6.83,-2.50 Q -6.83,-2.50 -2.06,-14.73 2.71,-26.96 7.66,-41.08 12.62,-55.20 18.02,-75.79 23.42,-96.37 28.18,-131.16 32.95,-165.96 34.60,-195.44 36.26,-224.93 36.17,-245.61 36.08,-266.28 36.06,-275.54 36.04,-284.80 34.94,-289.70 33.84,-294.61 33.76,-295.45 33.68,-296.30 33.81,-297.14 33.94,-297.99 34.26,-298.77 34.59,-299.56 35.09,-300.24 35.60,-300.93 36.25,-301.48 36.91,-302.02 37.67,-302.39 38.44,-302.77 39.27,-302.94 40.10,-303.12 40.95,-303.10 41.80,-303.07 42.62,-302.84 43.44,-302.62 44.18,-302.20 44.93,-301.78 45.55,-301.20 46.17,-300.61 46.63,-299.90 47.09,-299.18 47.37,-298.38 47.65,-297.57 52.17,-295.20 56.70,-292.83 62.87,-287.86 69.03,-282.89 82.94,-273.33 96.86,-263.77 113.17,-255.26 129.48,-246.74 146.58,-242.40 163.68,-238.06 177.51,-237.80 191.34,-237.53 201.10,-240.89 210.86,-244.24 216.63,-248.95 222.40,-253.66 225.73,-259.95 229.07,-266.24 229.00,-272.28 228.94,-278.31 227.22,-282.79 225.51,-287.27 223.33,-289.65 221.14,-292.04 220.48,-293.13 219.83,-294.22 219.55,-295.46 219.28,-296.71 219.41,-297.97 219.55,-299.24 220.09,-300.40 220.62,-301.55 221.50,-302.48 222.37,-303.40 223.50,-304.00 224.62,-304.60 225.88,-304.80 227.13,-305.01 228.39,-304.80 229.65,-304.60 230.77,-304.00 231.90,-303.41 232.78,-302.48 233.65,-301.56 234.19,-300.40 234.72,-299.25 234.86,-297.98 235.00,-296.71 234.72,-295.47 234.45,-294.23 233.80,-293.14 233.14,-292.04 232.17,-291.22 231.20,-290.39 230.02,-289.92 228.83,-289.45 227.56,-289.38 226.29,-289.31 225.06,-289.65 223.84,-289.99 222.78,-290.71 221.73,-291.42 220.96,-292.43 220.18,-293.45 219.78,-294.66 219.37,-295.86 219.37,-297.14 219.37,-298.41 219.78,-299.62 220.18,-300.82 220.95,-301.84 221.72,-302.85 222.78,-303.57 223.83,-304.28 225.06,-304.62 226.28,-304.96 227.56,-304.89 228.83,-304.83 230.01,-304.35 231.19,-303.88 232.17,-303.06 233.14,-302.24 233.14,-302.24 233.13,-302.24 235.93,-296.49 238.73,-290.75 239.89,-284.22 241.05,-277.69 240.02,-269.44 238.99,-261.19 234.24,-253.18 229.50,-245.18 222.07,-239.44 214.64,-233.71 203.00,-229.88 191.37,-226.06 176.11,-226.30 160.86,-226.53 142.38,-231.11 123.90,-235.68 106.75,-244.28 89.60,-252.87 75.04,-262.30 60.47,-271.74 53.74,-276.67 47.01,-281.60 40.42,-288.10 33.84,-294.61 33.76,-295.45 33.68,-296.30 33.81,-297.14 33.94,-297.98 34.26,-298.77 34.59,-299.56 35.09,-300.24 35.60,-300.93 36.25,-301.47 36.90,-302.02 37.67,-302.39 38.44,-302.77 39.27,-302.94 40.10,-303.12 40.95,-303.10 41.80,-303.07 42.62,-302.84 43.44,-302.62 44.18,-302.20 44.92,-301.78 45.54,-301.20 46.16,-300.61 46.63,-299.90 47.09,-299.18 47.37,-298.38 47.65,-297.58 46.89,-295.66 46.14,-293.75 46.56,-289.34 46.98,-284.92 47.08,-275.64 47.19,-266.36 47.38,-245.34 47.58,-224.32 46.04,-194.36 44.49,-164.41 39.81,-128.90 35.12,-93.40 29.87,-72.28 24.62,-51.17 19.99,-36.74 15.35,-22.32 11.09,-9.90 6.83,2.50 6.43,3.28 6.03,4.07 5.46,4.73 4.88,5.39 4.17,5.90 3.45,6.40 2.63,6.73 1.82,7.05 0.95,7.16 0.08,7.28 -0.79,7.18 -1.66,7.08 -2.48,6.78 -3.31,6.48 -4.04,5.99 -4.76,5.50 -5.35,4.85 -5.94,4.20 -6.36,3.42 -6.77,2.65 -6.99,1.80 -7.21,0.95 -7.22,0.07 -7.23,-0.79 -7.03,-1.65 -6.83,-2.50 -6.83,-2.50 L -6.83,-2.50 Z"></path></g><g stroke-opacity="0.6" fill-opacity="0.6" transform="translate(781.7142857142856 175.71428571428578) rotate(0 168.57142857142867 16.428571428571445)" stroke="none"><path fill="#f08c00" d="M 0.20,-6.79 Q 0.20,-6.79 13.75,-6.17 27.30,-5.55 49.23,-3.57 71.16,-1.59 100.25,2.17 129.33,5.94 179.81,12.09 230.29,18.24 261.10,20.87 291.90,23.49 314.75,25.44 337.59,27.39 338.45,27.61 339.31,27.82 340.06,28.30 340.81,28.78 341.36,29.47 341.91,30.16 342.22,31.00 342.52,31.83 342.54,32.72 342.57,33.60 342.30,34.45 342.04,35.30 341.52,36.02 341.01,36.74 340.28,37.25 339.56,37.77 338.71,38.03 337.87,38.28 336.98,38.26 336.09,38.23 335.26,37.92 334.43,37.62 333.74,37.06 333.05,36.50 332.57,35.76 332.10,35.01 331.89,34.15 331.67,33.29 331.75,32.40 331.82,31.52 332.17,30.70 332.53,29.89 333.12,29.23 333.71,28.57 334.49,28.14 335.26,27.70 336.13,27.54 337.00,27.37 337.88,27.49 338.76,27.62 339.55,28.01 340.34,28.41 340.97,29.04 341.60,29.66 341.99,30.46 342.38,31.26 342.50,32.13 342.62,33.01 342.45,33.88 342.28,34.75 341.84,35.52 341.40,36.30 340.74,36.89 340.08,37.48 339.26,37.83 338.45,38.17 337.56,38.24 336.68,38.31 336.68,38.31 336.68,38.31 313.83,36.45 290.98,34.59 259.96,32.06 228.94,29.53 178.40,23.54 127.87,17.55 99.01,14.02 70.15,10.50 48.53,8.85 26.91,7.19 13.35,6.99 -0.20,6.79 -1.01,6.66 -1.82,6.54 -2.58,6.23 -3.33,5.91 -3.99,5.43 -4.65,4.94 -5.18,4.31 -5.70,3.68 -6.06,2.95 -6.42,2.21 -6.59,1.41 -6.76,0.61 -6.74,-0.20 -6.71,-1.02 -6.49,-1.81 -6.27,-2.60 -5.87,-3.31 -5.47,-4.02 -4.91,-4.62 -4.34,-5.22 -3.66,-5.66 -2.97,-6.10 -2.19,-6.37 -1.42,-6.64 -0.60,-6.71 0.20,-6.79 0.20,-6.79 L 0.20,-6.79 Z"></path></g><g stroke-opacity="0.6" fill-opacity="0.6" transform="translate(738.8571428571429 311.42857142857156) rotate(0 147.1428571428571 -20.714285714285722)" stroke="none"><path fill="#f08c00" d="M -3.34,-6.41 Q -3.34,-6.41 6.22,-11.10 15.79,-15.79 30.00,-21.52 44.21,-27.26 62.49,-31.78 80.77,-36.30 103.88,-39.41 126.98,-42.52 161.69,-42.58 196.40,-42.64 222.92,-38.48 249.45,-34.33 263.06,-29.57 276.67,-24.81 282.73,-22.25 288.80,-19.68 293.12,-18.01 297.44,-16.35 298.37,-15.68 299.30,-15.01 299.97,-14.07 300.64,-13.14 300.98,-12.04 301.31,-10.95 301.28,-9.80 301.25,-8.65 300.85,-7.57 300.45,-6.50 299.73,-5.60 299.01,-4.71 298.04,-4.09 297.08,-3.47 295.96,-3.20 294.85,-2.92 293.70,-3.02 292.56,-3.11 291.51,-3.57 290.45,-4.02 289.60,-4.79 288.75,-5.56 288.18,-6.56 287.62,-7.56 287.40,-8.68 287.19,-9.81 287.34,-10.95 287.50,-12.09 288.01,-13.11 288.52,-14.14 289.34,-14.95 290.15,-15.76 291.18,-16.27 292.21,-16.78 293.34,-16.93 294.48,-17.09 295.61,-16.87 296.74,-16.65 297.73,-16.09 298.73,-15.52 299.50,-14.66 300.26,-13.81 300.72,-12.75 301.17,-11.70 301.26,-10.55 301.35,-9.41 301.07,-8.30 300.79,-7.18 300.18,-6.22 299.56,-5.25 298.66,-4.53 297.76,-3.81 296.69,-3.42 295.61,-3.03 294.46,-3.00 293.31,-2.97 292.22,-3.30 291.12,-3.64 291.12,-3.64 291.12,-3.64 287.19,-6.08 283.25,-8.52 278.15,-11.51 273.05,-14.50 260.38,-18.94 247.71,-23.38 222.06,-27.35 196.41,-31.32 162.49,-31.17 128.56,-31.01 106.14,-27.82 83.72,-24.63 66.39,-20.12 49.05,-15.61 35.52,-9.76 21.98,-3.91 12.66,1.24 3.34,6.41 2.52,6.71 1.71,7.02 0.84,7.12 -0.01,7.23 -0.88,7.12 -1.74,7.01 -2.56,6.70 -3.37,6.39 -4.09,5.89 -4.80,5.40 -5.38,4.74 -5.96,4.09 -6.36,3.32 -6.76,2.54 -6.97,1.70 -7.18,0.85 -7.17,-0.01 -7.17,-0.88 -6.96,-1.73 -6.75,-2.58 -6.34,-3.35 -5.94,-4.12 -5.36,-4.77 -4.78,-5.42 -4.06,-5.91 -3.34,-6.41 -3.34,-6.41 L -3.34,-6.41 Z"></path></g><g stroke-opacity="0.6" fill-opacity="0.6" transform="translate(1304.5714285714284 40) rotate(0 -61.42857142857133 154.28571428571433)" stroke="none"><path fill="#1971c2" d="M 4.13,5.22 Q 4.13,5.22 -5.83,12.87 -15.81,20.53 -28.25,30.67 -40.68,40.82 -56.18,54.88 -71.68,68.94 -86.12,82.31 -100.56,95.68 -108.81,103.03 -117.06,110.38 -119.79,113.88 -122.53,117.37 -123.17,117.82 -123.82,118.27 -124.55,118.56 -125.28,118.84 -126.06,118.94 -126.84,119.04 -127.63,118.96 -128.41,118.87 -129.15,118.59 -129.88,118.32 -130.53,117.88 -131.19,117.44 -131.71,116.85 -132.24,116.27 -132.61,115.57 -132.98,114.88 -133.17,114.11 -133.37,113.35 -133.37,112.57 -133.38,111.78 -133.20,111.01 -133.02,110.25 -132.65,109.55 -132.29,108.85 -131.78,108.26 -131.26,107.66 -120.23,109.58 -109.20,111.50 -100.58,113.23 -91.95,114.96 -81.95,117.39 -71.94,119.81 -52.83,125.39 -33.72,130.97 -13.09,139.17 7.53,147.36 26.55,155.78 45.58,164.20 54.82,168.16 64.07,172.12 69.03,173.77 73.99,175.42 74.64,175.80 75.29,176.18 75.84,176.70 76.38,177.22 76.78,177.86 77.19,178.50 77.43,179.22 77.66,179.94 77.72,180.69 77.78,181.44 77.66,182.19 77.54,182.93 77.24,183.63 76.94,184.32 76.49,184.92 76.04,185.53 75.45,186.00 74.86,186.48 74.18,186.80 73.50,187.13 72.76,187.28 72.02,187.43 71.26,187.40 70.51,187.36 69.78,187.15 69.06,186.94 67.93,191.08 66.80,195.22 57.28,201.43 47.75,207.65 33.43,215.12 19.11,222.60 2.40,231.06 -14.30,239.52 -47.03,253.44 -79.75,267.36 -111.77,279.43 -143.79,291.50 -159.77,297.83 -175.76,304.15 -187.61,308.83 -199.46,313.52 -200.30,313.70 -201.14,313.89 -202.00,313.79 -202.86,313.70 -203.64,313.34 -204.42,312.97 -205.05,312.38 -205.67,311.78 -206.07,311.02 -206.48,310.26 -206.61,309.41 -206.75,308.56 -206.61,307.71 -206.47,306.86 -206.07,306.10 -205.66,305.34 -205.03,304.74 -204.41,304.15 -203.62,303.79 -202.84,303.43 -201.98,303.34 -201.13,303.25 -200.29,303.43 -199.44,303.62 -198.71,304.07 -197.97,304.51 -197.41,305.17 -196.85,305.83 -196.54,306.63 -196.22,307.43 -196.17,308.29 -196.13,309.15 -196.36,309.98 -196.59,310.81 -197.08,311.52 -197.56,312.24 -198.25,312.76 -198.94,313.28 -199.75,313.55 -200.57,313.83 -201.43,313.82 -202.29,313.82 -203.11,313.55 -203.93,313.27 -204.61,312.75 -205.30,312.22 -205.78,311.51 -206.26,310.80 -206.49,309.96 -206.72,309.13 -206.67,308.27 -206.63,307.41 -206.30,306.61 -205.98,305.81 -205.42,305.16 -204.87,304.50 -204.13,304.06 -203.39,303.61 -203.39,303.61 -203.39,303.61 -191.55,298.90 -179.71,294.19 -163.66,287.80 -147.60,281.41 -115.81,269.37 -84.03,257.33 -51.67,243.50 -19.31,229.67 -2.72,221.16 13.87,212.65 27.66,205.32 41.45,197.99 49.75,192.56 58.06,187.14 66.02,181.28 73.99,175.42 74.64,175.80 75.29,176.18 75.84,176.70 76.38,177.22 76.78,177.86 77.19,178.50 77.43,179.22 77.66,179.93 77.72,180.69 77.78,181.44 77.66,182.19 77.54,182.93 77.24,183.63 76.94,184.32 76.49,184.92 76.04,185.53 75.45,186.00 74.86,186.48 74.18,186.80 73.50,187.13 72.76,187.28 72.02,187.43 71.26,187.40 70.51,187.36 69.78,187.15 69.06,186.94 64.49,184.40 59.91,181.85 50.60,177.87 41.29,173.90 22.44,165.58 3.60,157.25 -16.55,149.25 -36.71,141.24 -55.59,135.76 -74.46,130.28 -84.26,127.95 -94.06,125.62 -103.03,123.88 -112.01,122.13 -117.27,119.75 -122.53,117.37 -123.17,117.82 -123.82,118.27 -124.55,118.56 -125.28,118.84 -126.06,118.94 -126.84,119.04 -127.63,118.96 -128.41,118.87 -129.15,118.59 -129.88,118.32 -130.53,117.88 -131.19,117.44 -131.71,116.85 -132.24,116.27 -132.61,115.57 -132.98,114.88 -133.17,114.12 -133.37,113.35 -133.37,112.57 -133.38,111.78 -133.20,111.01 -133.02,110.25 -132.65,109.55 -132.29,108.85 -131.78,108.26 -131.26,107.66 -127.87,104.90 -124.47,102.15 -116.37,94.78 -108.26,87.42 -93.89,73.91 -79.51,60.39 -63.93,45.99 -48.35,31.58 -35.98,21.13 -23.61,10.68 -13.87,2.72 -4.13,-5.22 -3.45,-5.64 -2.76,-6.06 -2.00,-6.30 -1.23,-6.55 -0.43,-6.60 0.36,-6.65 1.16,-6.51 1.95,-6.37 2.68,-6.04 3.42,-5.72 4.05,-5.22 4.69,-4.73 5.18,-4.10 5.68,-3.47 6.02,-2.74 6.35,-2.01 6.50,-1.22 6.65,-0.43 6.60,0.36 6.56,1.16 6.32,1.93 6.09,2.70 5.68,3.39 5.26,4.08 4.70,4.65 4.13,5.22 4.13,5.22 L 4.13,5.22 Z"></path></g><g stroke-opacity="0.6" fill-opacity="0.6" transform="translate(1617.4285714285716 37.142857142857224) rotate(0 -135.71428571428578 155.71428571428572)" stroke="none"><path fill="#1971c2" d="M 3.24,5.87 Q 3.24,5.87 -8.76,12.27 -20.77,18.67 -32.84,25.42 -44.91,32.17 -57.82,39.90 -70.73,47.63 -90.68,59.15 -110.64,70.66 -129.40,81.29 -148.16,91.91 -158.14,97.61 -168.13,103.31 -170.52,106.62 -172.91,109.94 -173.63,110.24 -174.35,110.55 -175.11,110.67 -175.88,110.80 -176.66,110.73 -177.44,110.67 -178.18,110.42 -178.91,110.18 -179.57,109.76 -180.23,109.34 -180.77,108.78 -181.31,108.22 -181.70,107.54 -182.09,106.87 -182.30,106.12 -182.52,105.37 -182.55,104.59 -182.58,103.81 -182.42,103.05 -182.27,102.28 -181.93,101.58 -181.60,100.88 -181.10,100.27 -180.61,99.67 -179.99,99.20 -179.36,98.74 -166.72,105.41 -154.08,112.08 -143.53,118.35 -132.98,124.63 -121.12,131.40 -109.25,138.18 -88.54,150.55 -67.83,162.92 -54.51,171.05 -41.19,179.19 -34.85,183.37 -28.50,187.55 -25.66,189.40 -22.82,191.24 -22.22,191.78 -21.62,192.32 -21.17,192.99 -20.72,193.66 -20.44,194.41 -20.16,195.17 -20.07,195.97 -19.98,196.77 -20.09,197.57 -20.19,198.36 -20.48,199.11 -20.78,199.86 -21.24,200.52 -21.70,201.18 -22.31,201.71 -22.92,202.24 -23.64,202.61 -24.35,202.97 -25.14,203.16 -25.92,203.34 -26.73,203.34 -27.53,203.33 -28.31,203.13 -29.09,202.93 -29.80,202.55 -30.51,202.17 -32.69,206.17 -34.87,210.18 -57.27,219.98 -79.67,229.78 -102.08,239.92 -124.49,250.06 -157.03,265.03 -189.57,280.00 -212.45,290.45 -235.34,300.91 -252.25,308.64 -269.16,316.36 -270.00,316.60 -270.85,316.83 -271.73,316.78 -272.61,316.73 -273.42,316.40 -274.24,316.07 -274.91,315.50 -275.58,314.93 -276.03,314.18 -276.48,313.42 -276.66,312.56 -276.85,311.70 -276.75,310.83 -276.66,309.95 -276.28,309.16 -275.91,308.36 -275.31,307.72 -274.70,307.09 -273.92,306.68 -273.14,306.27 -272.28,306.13 -271.41,305.99 -270.54,306.13 -269.67,306.28 -268.90,306.69 -268.12,307.11 -267.52,307.75 -266.92,308.39 -266.55,309.19 -266.18,309.99 -266.09,310.86 -266.00,311.73 -266.19,312.59 -266.38,313.45 -266.84,314.20 -267.29,314.95 -267.96,315.52 -268.64,316.09 -269.45,316.41 -270.27,316.73 -271.15,316.78 -272.03,316.82 -272.87,316.59 -273.72,316.35 -274.45,315.85 -275.17,315.36 -275.70,314.66 -276.23,313.95 -276.51,313.12 -276.79,312.29 -276.79,311.41 -276.78,310.53 -276.50,309.70 -276.22,308.86 -275.68,308.16 -275.15,307.47 -274.42,306.98 -273.69,306.48 -273.69,306.48 -273.69,306.48 -256.81,298.70 -239.93,290.91 -217.10,280.37 -194.26,269.84 -161.76,254.74 -129.25,239.65 -106.84,229.31 -84.43,218.97 -63.21,209.56 -42.00,200.16 -32.41,195.70 -22.82,191.24 -22.22,191.78 -21.62,192.32 -21.17,192.99 -20.72,193.66 -20.44,194.41 -20.16,195.17 -20.07,195.97 -19.98,196.77 -20.09,197.57 -20.19,198.36 -20.48,199.11 -20.78,199.86 -21.24,200.52 -21.70,201.18 -22.31,201.71 -22.92,202.24 -23.64,202.61 -24.35,202.97 -25.14,203.16 -25.92,203.34 -26.72,203.34 -27.53,203.33 -28.31,203.13 -29.09,202.93 -29.80,202.55 -30.51,202.17 -32.82,199.56 -35.13,196.95 -40.92,192.59 -46.70,188.23 -59.99,180.14 -73.27,172.04 -93.90,159.75 -114.53,147.45 -126.50,140.66 -138.46,133.86 -149.19,127.52 -159.92,121.18 -166.42,115.56 -172.91,109.94 -173.63,110.24 -174.34,110.55 -175.11,110.67 -175.88,110.80 -176.66,110.73 -177.44,110.67 -178.18,110.42 -178.91,110.18 -179.57,109.76 -180.23,109.34 -180.77,108.78 -181.31,108.22 -181.70,107.54 -182.09,106.87 -182.30,106.12 -182.52,105.37 -182.55,104.59 -182.58,103.81 -182.42,103.05 -182.27,102.29 -181.93,101.58 -181.60,100.88 -181.10,100.27 -180.61,99.67 -179.99,99.20 -179.36,98.74 -176.54,96.33 -173.71,93.93 -163.68,88.10 -153.65,82.27 -134.99,71.57 -116.33,60.88 -96.55,49.29 -76.77,37.69 -63.84,29.70 -50.90,21.71 -38.88,14.66 -26.87,7.61 -15.05,0.86 -3.24,-5.87 -2.49,-6.17 -1.74,-6.47 -0.94,-6.59 -0.13,-6.70 0.66,-6.62 1.46,-6.54 2.23,-6.27 2.99,-6.00 3.66,-5.55 4.34,-5.11 4.89,-4.51 5.44,-3.92 5.83,-3.21 6.22,-2.50 6.43,-1.72 6.64,-0.94 6.65,-0.13 6.67,0.67 6.49,1.45 6.32,2.24 5.96,2.97 5.59,3.69 5.07,4.31 4.55,4.92 3.89,5.40 3.24,5.87 3.24,5.87 L 3.24,5.87 Z"></path></g><g stroke-opacity="0.6" fill-opacity="0.6" transform="translate(1676 347.1428571428572) rotate(0 109.28571428571445 -145)" stroke="none"><path fill="#2f9e44" d="M -7.55,-1.06 Q -7.55,-1.06 -3.95,-24.42 -0.35,-47.79 1.66,-71.46 3.68,-95.13 4.61,-127.30 5.54,-159.47 5.99,-181.00 6.45,-202.52 6.68,-213.72 6.91,-224.92 7.45,-233.91 7.99,-242.89 8.69,-249.49 9.39,-256.09 9.91,-262.00 10.42,-267.92 10.23,-273.09 10.04,-278.27 9.83,-284.20 9.63,-290.12 12.59,-293.63 15.54,-297.14 23.90,-297.42 32.26,-297.70 51.96,-293.10 71.66,-288.50 90.85,-284.34 110.04,-280.19 125.62,-276.63 141.21,-273.07 154.33,-270.24 167.46,-267.40 177.65,-264.87 187.84,-262.34 192.95,-261.76 198.05,-261.19 204.18,-259.21 210.30,-257.23 214.43,-255.24 218.56,-253.25 218.58,-245.04 218.60,-236.82 212.19,-233.90 205.79,-230.99 198.97,-227.88 192.15,-224.77 185.34,-220.93 178.53,-217.09 165.11,-209.35 151.69,-201.62 135.18,-192.61 118.68,-183.61 102.50,-175.69 86.33,-167.77 75.54,-161.69 64.74,-155.60 54.84,-149.38 44.94,-143.16 40.05,-139.69 35.16,-136.22 31.98,-140.01 28.80,-143.80 36.15,-140.46 43.51,-137.12 50.43,-132.82 57.35,-128.51 73.86,-118.67 90.36,-108.82 108.61,-96.21 126.85,-83.60 146.00,-70.00 165.16,-56.39 176.44,-48.99 187.72,-41.60 196.13,-36.09 204.54,-30.57 205.24,-29.95 205.93,-29.32 206.39,-28.51 206.85,-27.69 207.02,-26.77 207.20,-25.86 207.07,-24.93 206.94,-24.00 206.53,-23.17 206.11,-22.33 205.45,-21.67 204.79,-21.01 203.95,-20.60 203.11,-20.18 202.18,-20.06 201.26,-19.94 200.34,-20.11 199.42,-20.29 198.61,-20.75 197.80,-21.21 197.17,-21.91 196.55,-22.61 196.18,-23.47 195.82,-24.33 195.74,-25.26 195.67,-26.19 195.89,-27.10 196.12,-28.00 196.63,-28.79 197.13,-29.57 197.86,-30.16 198.59,-30.74 199.47,-31.06 200.35,-31.38 201.28,-31.41 202.21,-31.43 203.11,-31.16 204.00,-30.88 204.76,-30.33 205.52,-29.79 206.06,-29.03 206.60,-28.27 206.88,-27.37 207.15,-26.48 207.12,-25.54 207.09,-24.61 206.77,-23.73 206.45,-22.86 205.86,-22.13 205.27,-21.40 204.48,-20.90 203.70,-20.40 202.79,-20.17 201.88,-19.95 200.95,-20.03 200.02,-20.11 199.16,-20.48 198.30,-20.85 198.30,-20.85 198.30,-20.85 189.79,-26.20 181.27,-31.55 169.64,-38.85 158.01,-46.15 138.73,-59.40 119.45,-72.64 101.37,-84.56 83.29,-96.47 66.52,-105.68 49.75,-114.89 42.14,-118.69 34.54,-122.49 28.98,-126.14 23.41,-129.79 25.88,-138.53 28.36,-147.27 33.58,-150.02 38.80,-152.78 48.84,-159.29 58.88,-165.79 69.87,-172.25 80.86,-178.70 96.62,-186.77 112.38,-194.84 128.49,-204.11 144.60,-213.39 157.66,-221.62 170.73,-229.84 177.92,-234.56 185.10,-239.27 191.90,-242.78 198.70,-246.28 205.00,-249.26 211.30,-252.24 208.13,-247.69 204.96,-243.15 200.16,-245.30 195.35,-247.46 190.21,-248.87 185.06,-250.28 174.99,-252.43 164.93,-254.57 151.65,-256.95 138.36,-259.33 122.75,-262.24 107.13,-265.14 87.68,-268.46 68.24,-271.78 48.02,-278.94 27.80,-286.10 27.22,-281.67 26.65,-277.25 25.43,-271.60 24.21,-265.95 23.04,-260.00 21.87,-254.04 20.53,-248.17 19.19,-242.29 18.79,-233.54 18.39,-224.78 18.34,-213.56 18.29,-202.34 18.09,-180.76 17.89,-159.18 17.29,-126.67 16.68,-94.15 15.09,-70.00 13.49,-45.85 10.52,-22.39 7.55,1.06 7.31,1.94 7.08,2.83 6.63,3.64 6.19,4.44 5.57,5.12 4.95,5.80 4.18,6.31 3.41,6.81 2.55,7.12 1.68,7.43 0.77,7.53 -0.14,7.62 -1.05,7.49 -1.96,7.37 -2.81,7.02 -3.67,6.68 -4.41,6.15 -5.16,5.61 -5.76,4.91 -6.35,4.21 -6.76,3.39 -7.18,2.57 -7.38,1.67 -7.58,0.77 -7.57,-0.14 -7.55,-1.06 -7.55,-1.06 L -7.55,-1.06 Z"></path></g></svg>