<svg version="1.1" xmlns="http://www.w3.org/2000/svg" viewBox="0 0 200.83333333333303 202" width="200.83333333333303" height="202">
  <!-- svg-source:excalidraw -->
  
  <defs>
    <style class="style-fonts">
      
    </style>
    
  </defs>
  <g stroke-linecap="round" transform="translate(10 10) rotate(0 90.41666666666652 91)"><path d="M22.03 33.72 C22.03 33.72, 22.03 33.72, 22.03 33.72 M22.03 33.72 C22.03 33.72, 22.03 33.72, 22.03 33.72 M5.62 71.36 C15.15 56.5, 26.37 45.33, 55.22 13.2 M4.59 68.45 C21 47.62, 36.05 26.84, 51.65 11.17 M3.88 78.95 C25.58 53.44, 50.4 18.9, 67.78 3 M3.51 80.95 C29.77 50.1, 54.47 22.09, 67.34 5.13 M2.1 96.86 C27.66 60.4, 53.27 28.12, 86.11 -3.65 M-1.79 95.81 C31.18 60.33, 62.9 25.09, 83.7 -0.15 M4.42 104.5 C24.63 77.88, 47.15 45.93, 93.71 -2.57 M3.32 105.19 C31.86 71.29, 64.04 38.43, 92.54 0.15 M2.82 114.72 C27.81 86.37, 51.26 55.93, 103.6 1.32 M6.56 112.82 C34.41 82.58, 62.98 48.69, 101.44 -0.18 M9.23 126.01 C30.97 92.26, 54.32 63.46, 112.16 4.46 M7.46 124.7 C32.98 90.96, 62.5 64.08, 112.27 4.54 M7.24 133.25 C42.2 97.68, 68.48 67.04, 123.42 6.03 M9.56 132.18 C41 96.99, 71.14 64.75, 119.99 3.67 M14.98 138.48 C51.45 93.92, 96.87 50.05, 129.93 12.52 M13.92 137.27 C59.52 88.48, 104.17 37.34, 126.06 11.31 M16.9 142.13 C50.05 113.15, 83.33 76.37, 135.05 17.4 M19.37 144.26 C61.03 97.19, 102.74 51.28, 135.38 12.32 M23.23 156.58 C66.14 103.93, 107.77 55.1, 141.35 15.47 M24.66 151.7 C48.06 121.71, 76.06 93.38, 141.14 17.24 M29.68 160.78 C76.6 109.25, 121.22 51.39, 146.11 24.51 M28.62 159.53 C67.03 113.14, 107.67 67.53, 146.97 22.22 M33.05 166.4 C59.84 137.84, 87.56 105.19, 152.4 29.13 M36.38 165.57 C77.75 117.07, 119.2 69.59, 154.53 29.44 M43.56 168.23 C74.7 125.64, 105.83 93.07, 159.23 31.42 M44.22 168.43 C86.55 118.36, 130.87 66.38, 160.26 32.11 M55.1 167.24 C93.38 123.35, 136.66 74.43, 164.62 42.78 M52.45 168.98 C73.92 138.91, 99.8 110.34, 162.97 38.8 M60.2 174.01 C81 144.71, 107.11 122.52, 173.18 46.1 M56.91 174.24 C96.08 131.72, 136.26 88.68, 170.04 46 M67.64 176.59 C93.86 154.38, 112.32 121.96, 171.77 54.36 M65.08 175.61 C90.02 144.19, 116.25 115.9, 173.58 53.21 M76.1 177.34 C93.7 152.02, 119.07 130.82, 180.38 60.98 M74.41 178.24 C106.64 144.94, 134.5 113.06, 175.94 63.71 M81.1 179.85 C112.69 151.87, 138.88 121.01, 177.18 69.51 M85.74 182.34 C109.21 154.29, 130.16 127.62, 179.23 74.64 M91.98 182.07 C119.74 152.69, 152.84 111.93, 178.08 79.67 M92.86 180.74 C122.92 149.06, 152.21 113.75, 179.52 81.56 M108.16 185.64 C121.56 165.5, 132.23 143.3, 178.41 92.31 M105.33 182.66 C132.6 148.38, 161.04 115.34, 181.11 95.8 M121.38 179.51 C140.46 153.31, 163.78 119.62, 183.13 111.97 M119.32 177.79 C134.11 160.62, 149.37 143.63, 181.18 109.44 M140.14 166.37 C151.58 158.86, 157.27 150.39, 171.29 130.31 M144.55 161.17 C153.27 153.45, 159.46 145.27, 174.91 127.22 M31.51 161.9 C31.51 161.9, 31.51 161.9, 31.51 161.9 M31.51 161.9 C31.51 161.9, 31.51 161.9, 31.51 161.9 M59.21 173.1 C38.1 158.46, 17.87 137.81, 14.31 131.42 M56.57 171.85 C43.05 159.1, 29.82 148.13, 11.06 134.11 M74.15 178.06 C58.72 167.04, 45.29 149.73, 3.54 120.15 M74.07 180.07 C56.55 162.88, 37.26 147.17, 6.38 119.38 M93.32 178.68 C68 162.42, 43.94 139.96, 0.35 104.57 M90.9 180.3 C68.55 161.32, 48.02 145.02, 1.03 105.82 M101.62 185.34 C66.85 149.42, 36.92 120.06, -2.51 90.49 M104.81 183.05 C77.26 157.33, 50.11 133.82, 1 92.8 M113.93 179.76 C77.21 148.66, 43.81 123.25, 1 85.71 M111.64 178.06 C81.4 151.83, 46.81 123.76, 3.71 82.56 M118.95 175.23 C77.25 139.84, 42.34 108.63, 1.86 76.98 M121.79 177.06 C93.18 148.63, 63.18 125.58, 4.16 73.85 M124.87 172.26 C89.3 141.33, 59.12 112.23, 1.46 67.48 M128.17 174.03 C93.99 140.18, 54.29 109.22, 4.69 61.89 M135.7 164.25 C100.72 137.8, 74.09 113.23, 10.61 57.86 M135.07 165.41 C102.19 137.42, 70.59 106.44, 8.6 56.03 M144.9 159.7 C104.06 129.44, 69.74 103.39, 14.96 49.26 M142.17 160.88 C97.26 122.8, 48.28 81.47, 13.9 49.29 M146.56 159.25 C117.75 126.65, 86.3 103.27, 15.14 40.17 M148.18 158.92 C97.85 110.29, 42.97 65.44, 15.88 43.8 M152.2 153.19 C103.78 106.35, 48.32 57.9, 18.35 39.45 M154.07 153 C124.43 125.84, 92.98 97.95, 19.23 34.41 M161.94 146.59 C126.61 121.88, 98.68 88.28, 30.54 31.21 M162.69 147.1 C127.13 114.28, 87.58 81.43, 28.56 30.05 M164.6 140.11 C122.89 99.37, 80.78 68.29, 31.72 28.57 M165.31 141.24 C124.89 107.1, 85.63 73.9, 32.19 26.16 M171.63 136.98 C133.54 104.39, 99.76 72.16, 35.87 17.82 M167.95 132.92 C124.78 95.7, 83.31 56.4, 40.51 21.34 M177.66 125.36 C143.64 100.69, 109.99 74.07, 41.06 18.11 M174.39 128.1 C132.24 90.24, 89.09 55.56, 44.5 15.62 M178.42 117.24 C152.01 94.95, 116.92 69.55, 51.35 12.39 M180.58 118.64 C129.25 78.71, 80.78 37.06, 52.11 9.96 M179.34 106.8 C141.5 73.67, 96.51 37.57, 57.35 5.72 M181.57 109.22 C154.83 85.57, 130.02 64.18, 61.23 7.14 M183.22 101.89 C149.24 70.86, 114.37 42.23, 66.91 4.88 M179.71 99.38 C157.08 74.14, 128 50.62, 68.81 3.91 M183.31 91.81 C149.39 61.57, 121.91 36.55, 74.95 1.32 M180.13 91.88 C159.49 72.84, 137.2 54.84, 77.17 0.53 M181.94 78.86 C149.74 52.93, 114.06 20, 90.39 -4.53 M181.81 78.81 C156.05 58.18, 130.11 34.58, 87.3 -2.41 M181.16 66.01 C153.06 46, 123.08 18.39, 105.98 3.65 M178.65 65.8 C158.67 50.72, 141.33 33.85, 101.2 1.54 M177.38 56.42 C150.94 33.13, 132.17 13.68, 118.39 4.51 M174.58 54.12 C157.42 40.97, 143.58 24.66, 116.36 3.69" stroke="#fd7e14" stroke-width="1" fill="none"></path><path d="M84.18 -1.59 C94.87 -4.36, 105.28 -0.86, 115.9 2.99 C126.53 6.85, 138.51 14.06, 147.93 21.54 C157.35 29.03, 166.93 37.61, 172.43 47.91 C177.93 58.2, 179.95 71.22, 180.91 83.33 C181.88 95.44, 181.99 109.44, 178.24 120.55 C174.49 131.66, 166.45 141.41, 158.44 150.01 C150.42 158.61, 139.93 166.56, 130.17 172.14 C120.42 177.72, 110.8 182.73, 99.92 183.48 C89.03 184.24, 76.23 180.24, 64.86 176.67 C53.49 173.1, 40.95 169.66, 31.7 162.07 C22.46 154.49, 14.68 141.91, 9.39 131.15 C4.1 120.39, 0.93 108.75, -0.03 97.5 C-0.98 86.25, -0.04 74.28, 3.65 63.64 C7.34 52.99, 14.68 42.28, 22.1 33.64 C29.52 24.99, 33.86 17.24, 48.16 11.78 C62.46 6.31, 94.12 0.59, 107.92 0.86 C121.73 1.12, 130.88 11.43, 130.98 13.38 M85.79 -2.73 C96.85 -4.5, 111.27 1.82, 122.76 6.2 C134.25 10.58, 146.18 15.35, 154.74 23.55 C163.29 31.75, 169.33 44.92, 174.09 55.4 C178.84 65.88, 182.87 75.33, 183.27 86.44 C183.68 97.54, 181.37 110.55, 176.5 122.02 C171.62 133.49, 162.23 146.72, 154 155.26 C145.78 163.79, 137.8 168.44, 127.12 173.23 C116.45 178.01, 101.17 183.78, 89.98 183.97 C78.78 184.15, 70.77 179.24, 59.95 174.32 C49.14 169.4, 33.68 162.33, 25.08 154.44 C16.49 146.55, 13.01 136.89, 8.38 127 C3.76 117.11, -2.7 106.11, -2.67 95.1 C-2.65 84.08, 4.12 72.22, 8.52 60.91 C12.91 49.6, 15.94 36.05, 23.69 27.25 C31.43 18.45, 44.33 12.6, 54.98 8.1 C65.62 3.59, 82.26 1.28, 87.55 0.23 C92.83 -0.82, 86.94 0.51, 86.68 1.8" stroke="#f08c00" stroke-width="2" fill="none"></path></g></svg>