<svg version="1.1" xmlns="http://www.w3.org/2000/svg" viewBox="0 0 166 113" width="166" height="113">
  <!-- svg-source:excalidraw -->
  
  <defs>
    <style class="style-fonts">
      
    </style>
    
  </defs>
  <g transform="translate(10 14) rotate(0 70.5 -1.5)" stroke="none"><path fill="#1e1e1e" d="M 0.23,-7.03 Q 0.23,-7.03 8.85,-6.50 17.46,-5.97 35.42,-5.67 53.37,-5.37 71.90,-5.48 90.43,-5.59 104.74,-6.73 119.05,-7.88 129.78,-8.73 140.51,-9.59 141.42,-9.52 142.32,-9.45 143.16,-9.10 144.00,-8.74 144.68,-8.14 145.36,-7.53 145.81,-6.74 146.26,-5.96 146.43,-5.06 146.61,-4.17 146.49,-3.27 146.37,-2.37 145.97,-1.56 145.57,-0.74 144.93,-0.09 144.29,0.54 143.48,0.95 142.67,1.36 141.77,1.48 140.87,1.61 139.98,1.44 139.08,1.28 138.29,0.83 137.50,0.39 136.89,-0.28 136.28,-0.95 135.91,-1.78 135.55,-2.61 135.47,-3.52 135.40,-4.43 135.61,-5.31 135.83,-6.19 136.31,-6.96 136.80,-7.73 137.50,-8.30 138.21,-8.87 139.06,-9.19 139.91,-9.51 140.82,-9.53 141.73,-9.56 142.60,-9.30 143.47,-9.04 144.21,-8.51 144.95,-7.98 145.48,-7.25 146.02,-6.51 146.29,-5.65 146.56,-4.78 146.54,-3.87 146.52,-2.96 146.21,-2.11 145.90,-1.25 145.33,-0.54 144.76,0.16 144.00,0.65 143.24,1.14 142.36,1.37 141.48,1.59 141.48,1.59 141.48,1.59 130.75,2.58 120.03,3.57 105.31,4.93 90.59,6.28 71.94,6.65 53.28,7.01 35.16,7.07 17.03,7.12 8.39,7.07 -0.23,7.03 -1.07,6.90 -1.91,6.77 -2.69,6.44 -3.47,6.11 -4.15,5.61 -4.83,5.10 -5.37,4.45 -5.91,3.80 -6.28,3.03 -6.65,2.27 -6.83,1.44 -7.00,0.61 -6.97,-0.23 -6.95,-1.08 -6.72,-1.89 -6.49,-2.71 -6.07,-3.44 -5.65,-4.18 -5.06,-4.80 -4.48,-5.41 -3.77,-5.87 -3.05,-6.33 -2.25,-6.60 -1.45,-6.88 -0.60,-6.95 0.23,-7.03 0.23,-7.03 L 0.23,-7.03 Z"></path></g><g transform="translate(11 59) rotate(0 72.5 -3)" stroke="none"><path fill="#1e1e1e" d="M 0,-7.03 Q 0,-7.03 11.78,-6.79 23.57,-6.55 39.63,-7.23 55.69,-7.91 70.08,-8.44 84.48,-8.96 101.80,-9.72 119.11,-10.48 131.91,-11.04 144.72,-11.60 145.62,-11.50 146.52,-11.40 147.35,-11.01 148.17,-10.63 148.83,-10.00 149.48,-9.37 149.90,-8.57 150.33,-7.76 150.47,-6.86 150.61,-5.97 150.46,-5.07 150.31,-4.18 149.88,-3.37 149.45,-2.57 148.79,-1.95 148.12,-1.33 147.30,-0.95 146.47,-0.58 145.57,-0.48 144.66,-0.39 143.78,-0.59 142.89,-0.79 142.11,-1.26 141.34,-1.73 140.75,-2.43 140.17,-3.12 139.84,-3.97 139.50,-4.82 139.46,-5.72 139.41,-6.63 139.66,-7.50 139.91,-8.38 140.42,-9.13 140.94,-9.88 141.66,-10.42 142.39,-10.97 143.25,-11.26 144.11,-11.54 145.02,-11.54 145.93,-11.53 146.79,-11.24 147.65,-10.94 148.37,-10.39 149.09,-9.84 149.60,-9.08 150.10,-8.33 150.34,-7.45 150.58,-6.57 150.53,-5.67 150.47,-4.76 150.13,-3.92 149.79,-3.07 149.20,-2.39 148.61,-1.70 147.83,-1.23 147.05,-0.77 146.16,-0.58 145.27,-0.39 145.27,-0.39 145.27,-0.39 132.47,0.30 119.68,1.00 102.35,1.95 85.02,2.90 70.68,3.68 56.34,4.46 39.96,5.50 23.57,6.55 11.78,6.79 0,7.03 -0.84,6.93 -1.68,6.83 -2.47,6.52 -3.26,6.22 -3.96,5.74 -4.66,5.26 -5.22,4.63 -5.78,3.99 -6.18,3.24 -6.57,2.49 -6.78,1.67 -6.98,0.84 -6.98,-0.00 -6.98,-0.84 -6.78,-1.67 -6.57,-2.49 -6.18,-3.24 -5.78,-3.99 -5.22,-4.63 -4.66,-5.26 -3.96,-5.74 -3.26,-6.22 -2.47,-6.52 -1.68,-6.83 -0.84,-6.93 0.00,-7.03 0.00,-7.03 L 0,-7.03 Z"></path></g><g transform="translate(10 103) rotate(0 67.5 -5)" stroke="none"><path fill="#1e1e1e" d="M -1.42,-7.58 Q -1.42,-7.58 7.83,-8.98 17.09,-10.38 24.30,-11.49 31.51,-12.60 44.77,-13.66 58.02,-14.71 67.16,-15.08 76.31,-15.45 89.67,-14.68 103.04,-13.92 112.41,-12.06 121.79,-10.21 126.17,-9.63 130.54,-9.04 133.67,-8.67 136.80,-8.31 137.92,-7.83 139.04,-7.35 139.95,-6.54 140.85,-5.73 141.46,-4.67 142.06,-3.61 142.29,-2.41 142.52,-1.21 142.36,-0.01 142.20,1.19 141.66,2.28 141.12,3.38 140.26,4.24 139.40,5.10 138.31,5.65 137.22,6.19 136.01,6.36 134.81,6.52 133.61,6.30 132.41,6.07 131.35,5.47 130.29,4.87 129.47,3.97 128.66,3.06 128.17,1.95 127.69,0.83 127.59,-0.38 127.49,-1.59 127.78,-2.77 128.07,-3.96 128.73,-4.98 129.38,-6.01 130.33,-6.78 131.28,-7.54 132.42,-7.97 133.56,-8.39 134.78,-8.42 136.00,-8.46 137.16,-8.10 138.33,-7.75 139.32,-7.04 140.31,-6.33 141.02,-5.34 141.73,-4.35 142.09,-3.19 142.45,-2.03 142.42,-0.81 142.39,0.40 141.98,1.54 141.56,2.69 140.80,3.64 140.03,4.59 139.01,5.25 137.98,5.91 136.80,6.20 135.62,6.50 134.41,6.40 133.19,6.31 133.19,6.31 133.19,6.31 126.41,3.74 119.63,1.17 111.04,-0.37 102.44,-1.93 89.75,-2.42 77.06,-2.91 68.20,-2.18 59.33,-1.45 46.45,0.08 33.57,1.62 26.63,2.55 19.70,3.48 10.56,5.53 1.42,7.58 0.49,7.64 -0.43,7.70 -1.35,7.54 -2.26,7.38 -3.11,7.00 -3.96,6.62 -4.70,6.05 -5.43,5.48 -6.01,4.75 -6.59,4.02 -6.97,3.17 -7.36,2.32 -7.53,1.41 -7.70,0.49 -7.65,-0.43 -7.60,-1.36 -7.32,-2.25 -7.05,-3.14 -6.57,-3.93 -6.09,-4.73 -5.44,-5.39 -4.78,-6.05 -3.99,-6.54 -3.19,-7.02 -2.30,-7.30 -1.42,-7.58 -1.42,-7.58 L -1.42,-7.58 Z"></path></g></svg>