<svg version="1.1" xmlns="http://www.w3.org/2000/svg" viewBox="0 0 157.3179698438197 133.9437434054911" width="314.6359396876394" height="267.8874868109822" filter="invert(93%) hue-rotate(180deg)">
  <!-- svg-source:excalidraw -->
  
  <defs>
    <style class="style-fonts">
      
    </style>
    
  </defs>
  <g transform="translate(22.58075468074992 87.39169914312663) rotate(0 56.5 -20.75)" stroke="none"><path fill="#2f9e44" d="M 5.25,-9.04 Q 5.25,-9.04 9.71,-6.47 14.18,-3.91 18.42,-1.33 22.65,1.23 26.41,3.60 30.16,5.96 35.27,9.61 40.39,13.27 35.74,14.17 31.10,15.07 35.79,7.32 40.48,-0.43 48.55,-9.81 56.63,-19.19 66.53,-29.93 76.43,-40.67 84.40,-48.83 92.38,-56.98 96.45,-61.92 100.52,-66.87 103.43,-70.72 106.34,-74.58 107.40,-75.50 108.47,-76.42 109.77,-76.95 111.08,-77.47 112.48,-77.56 113.89,-77.64 115.24,-77.27 116.60,-76.90 117.77,-76.12 118.94,-75.34 119.79,-74.22 120.65,-73.11 121.11,-71.78 121.56,-70.45 121.57,-69.04 121.58,-67.64 121.14,-66.30 120.70,-64.97 119.85,-63.84 119.01,-62.72 117.85,-61.92 116.69,-61.13 115.34,-60.74 113.98,-60.36 112.58,-60.43 111.17,-60.50 109.87,-61.01 108.56,-61.52 107.48,-62.43 106.40,-63.33 105.67,-64.53 104.94,-65.73 104.63,-67.10 104.32,-68.48 104.46,-69.87 104.61,-71.27 105.19,-72.55 105.77,-73.83 106.73,-74.86 107.70,-75.89 108.94,-76.55 110.17,-77.22 111.56,-77.45 112.95,-77.69 114.34,-77.47 115.72,-77.25 116.97,-76.60 118.22,-75.94 119.19,-74.93 120.16,-73.91 120.76,-72.64 121.36,-71.37 121.52,-69.97 121.68,-68.57 121.38,-67.20 121.09,-65.82 120.37,-64.61 119.65,-63.40 119.65,-63.41 119.65,-63.41 116.36,-59.87 113.06,-56.34 108.73,-51.28 104.40,-46.21 97.35,-37.60 90.30,-28.98 81.76,-17.84 73.22,-6.70 67.00,2.91 60.77,12.54 56.69,19.39 52.61,26.24 47.40,30.94 42.19,35.64 32.51,31.91 22.83,28.17 17.09,23.71 11.36,19.25 7.50,16.76 3.63,14.26 -0.80,11.65 -5.25,9.04 -6.25,8.28 -7.26,7.52 -8.05,6.54 -8.85,5.56 -9.38,4.42 -9.92,3.28 -10.17,2.05 -10.42,0.81 -10.37,-0.44 -10.31,-1.70 -9.96,-2.91 -9.60,-4.12 -8.97,-5.21 -8.34,-6.30 -7.46,-7.20 -6.59,-8.11 -5.52,-8.78 -4.45,-9.45 -3.26,-9.85 -2.06,-10.25 -0.80,-10.34 0.44,-10.44 1.69,-10.24 2.93,-10.03 4.09,-9.53 5.25,-9.04 5.25,-9.04 L 5.25,-9.04 Z"></path></g><g stroke-linecap="round"><g transform="translate(57.08075468074992 95.39169914312663) rotate(0 38 -42.25)"><path d="M-0.54 0.74 C12.06 -13.51, 63.27 -70.99, 76.16 -85.39 M1.37 0.08 C13.78 -14.05, 62.79 -70.15, 75.3 -84.32" stroke="#1e1e1e" stroke-width="4" fill="none"></path></g></g><mask></mask><g stroke-linecap="round"><g transform="translate(23.58075468074992 77.89169914312663) rotate(0 16 9.5)"><path d="M-1 -0.4 C4.57 2.99, 27.23 16.83, 32.79 20.13 M0.67 -1.66 C6.21 1.44, 27.07 15.45, 32.25 18.6" stroke="#1e1e1e" stroke-width="4" fill="none"></path></g></g><mask></mask><g stroke-linecap="round"><g transform="translate(146.58075468074992 14.89169914312663) rotate(0 -38.25 53)"><path d="M0.34 0.39 C-12.42 17.83, -62.9 87.97, -75.79 105.73 M-0.94 -0.45 C-13.87 17.68, -63.51 89.53, -76.37 107.13" stroke="#1e1e1e" stroke-width="4" fill="none"></path></g></g><mask></mask><g stroke-linecap="round"><g transform="translate(132.58075468074992 10.39169914312663) rotate(0 7 1.5)"><path d="M0.29 0.49 C2.48 0.98, 11.46 2.22, 13.67 2.58 M-0.23 0.27 C2.09 0.85, 12.26 2.6, 14.74 3.07" stroke="#1e1e1e" stroke-width="4" fill="none"></path></g></g><mask></mask><g stroke-linecap="round"><g transform="translate(19.08075468074992 74.89169914312663) rotate(0 -4.25 8)"><path d="M-0.11 0.3 C-1.55 2.84, -7.13 12.98, -8.6 15.54 M0.83 -0.03 C-0.68 2.54, -7.64 13.32, -9.08 16" stroke="#1e1e1e" stroke-width="4" fill="none"></path></g></g><mask></mask><g stroke-linecap="round"><g transform="translate(11.08075468074992 92.39169914312663) rotate(0 27.5 15.25)"><path d="M-0.74 -0.61 C8.51 4.8, 46.9 26.5, 56.06 31.55 M1.08 1.68 C10.2 6.86, 46.39 25.16, 55.67 29.98" stroke="#1e1e1e" stroke-width="4" fill="none"></path></g></g><mask></mask></svg>