<svg version="1.1" xmlns="http://www.w3.org/2000/svg" viewBox="0 0 129.8723133224994 128.41598689012233" width="129.8723133224994" height="128.41598689012233" filter="invert(93%) hue-rotate(180deg)">
  <!-- svg-source:excalidraw -->
  
  <defs>
    <style class="style-fonts">
      
    </style>
    
  </defs>
  <g stroke-linecap="round"><g transform="translate(21.73147863663735 34.41824817005545) rotate(0 22 -12)"><path d="M0.09 0.26 C12.32 -5.88, 26.33 -14.96, 45.03 -23.1 M0.45 0.74 C12.56 -7.25, 24.23 -12.85, 44.33 -24.42" stroke="#1e1e1e" stroke-width="2" fill="none"></path></g></g><mask></mask><g stroke-linecap="round"><g transform="translate(107.73147863663735 34.41824817005545) rotate(0 -21 -11.5)"><path d="M-0.59 -1.82 C-10.54 -5.36, -21.59 -13.01, -40.17 -24.28 M0.62 0.18 C-9.34 -5.84, -18.32 -10.53, -42.59 -22.25" stroke="#1e1e1e" stroke-width="2" fill="none"></path></g></g><mask></mask><g stroke-linecap="round"><g transform="translate(119.48416023794562 79.97512316685169) rotate(0 -6 -21.5)"><path d="M-0.16 -0.97 C-4.2 -11.43, -6 -19.65, -10.67 -43 M0.39 0.54 C-3.43 -10.4, -5.9 -21.66, -12.97 -42.64" stroke="#1e1e1e" stroke-width="2" fill="none"></path></g></g><mask></mask><g stroke-linecap="round"><g transform="translate(92.43477896966033 114.2507076656446) rotate(0 13 -12.5)"><path d="M0.16 0.68 C8.08 -5.41, 16.25 -14.77, 27.05 -25.28 M0.43 0.79 C7.55 -7.18, 15.58 -14.75, 26.09 -25.62" stroke="#1e1e1e" stroke-width="2" fill="none"></path></g></g><mask></mask><g stroke-linecap="round"><g transform="translate(47.70936299517746 117.33627662822607) rotate(0 20.5 0)"><path d="M0.11 0.49 C16.61 0.01, 29.03 -0.47, 41.49 1.08 M-0.64 0.58 C9.21 0.16, 18.47 -0.34, 41.62 0.98" stroke="#1e1e1e" stroke-width="2" fill="none"></path></g></g><mask></mask><g stroke-linecap="round"><g transform="translate(14.135542150698484 87.31509742463595) rotate(0 14 14)"><path d="M1.62 -1.49 C10.4 9.78, 18.47 18.31, 26.42 28.85 M0.64 0.24 C9.18 10.31, 19.82 20.46, 28.73 28.81" stroke="#1e1e1e" stroke-width="2" fill="none"></path></g></g><mask></mask><g stroke-linecap="round"><g transform="translate(18.60659088846296 35.91841941162943) rotate(0 -4.5 24)"><path d="M-1.11 1.2 C-1.3 17.14, -6.16 35.73, -7.12 48.69 M-0.17 -0.04 C-2.94 14.7, -5.53 31.98, -8.61 48.25" stroke="#1e1e1e" stroke-width="2" fill="none"></path></g></g><mask></mask><g transform="translate(33.73147863663735 42.41824817005545) rotate(0 24.5 27)" stroke="none"><path fill="#343a40" d="M -1.76,-4.85 Q -1.76,-4.85 1.43,-5.90 4.63,-6.95 7.38,-7.98 10.13,-9.02 13.24,-10.32 16.35,-11.63 18.46,-12.42 20.57,-13.22 24.05,-14.35 27.54,-15.48 30.41,-15.78 33.28,-16.07 35.80,-16.19 38.33,-16.32 40.57,-16.38 42.81,-16.43 45.14,-16.05 47.48,-15.66 48.13,-15.37 48.78,-15.07 49.56,-14.87 50.33,-14.68 51.04,-14.31 51.74,-13.93 52.34,-13.40 52.93,-12.87 53.38,-12.21 53.84,-11.55 54.12,-10.80 54.40,-10.06 54.49,-9.26 54.58,-8.47 54.48,-7.68 54.38,-6.89 54.10,-6.14 53.81,-5.40 53.35,-4.74 52.90,-4.08 52.30,-3.56 51.70,-3.03 50.99,-2.66 50.28,-2.29 49.51,-2.11 48.73,-1.92 47.93,-1.92 47.13,-1.92 42.89,-0.99 38.65,-0.06 35.22,0.09 31.79,0.25 28.98,0.59 26.18,0.94 22.24,1.58 18.30,2.21 15.70,2.69 13.10,3.17 12.50,3.24 11.90,3.32 11.30,3.26 10.71,3.19 10.14,2.98 9.58,2.77 9.08,2.44 8.58,2.10 8.18,1.65 7.77,1.21 7.49,0.68 7.20,0.15 7.05,-0.42 6.90,-1.01 6.90,-1.61 6.89,-2.21 7.03,-2.80 7.17,-3.38 7.44,-3.92 7.72,-4.45 8.11,-4.91 8.50,-5.36 9.00,-5.71 9.49,-6.06 10.05,-6.28 10.61,-6.49 13.24,-5.68 15.87,-4.87 18.50,-4.64 21.13,-4.41 25.09,-3.97 29.05,-3.53 32.21,-3.46 35.37,-3.39 37.43,-3.53 39.49,-3.68 40.05,-3.60 40.60,-3.52 41.12,-3.31 41.64,-3.10 42.10,-2.77 42.55,-2.44 42.92,-2.01 43.28,-1.58 43.53,-1.08 43.78,-0.57 43.90,-0.02 44.02,0.52 44.01,1.08 44.00,1.64 43.85,2.18 43.70,2.72 43.43,3.22 43.16,3.71 42.78,4.12 42.39,4.53 41.92,4.84 41.45,5.15 40.92,5.34 40.39,5.52 39.84,5.58 39.28,5.63 36.09,6.65 32.90,7.68 29.64,8.29 26.39,8.90 21.43,9.17 16.48,9.45 13.90,9.77 11.32,10.09 10.78,10.09 10.25,10.09 9.72,9.95 9.20,9.82 8.73,9.57 8.25,9.31 7.85,8.95 7.45,8.59 7.15,8.15 6.85,7.70 6.66,7.20 6.48,6.69 6.42,6.16 6.36,5.62 6.43,5.09 6.49,4.55 6.69,4.05 6.88,3.55 7.19,3.11 7.50,2.67 7.91,2.32 8.31,1.96 8.79,1.72 9.27,1.47 9.80,1.35 10.32,1.22 13.39,1.29 16.46,1.35 20.79,1.34 25.12,1.33 28.34,0.93 31.56,0.53 34.84,0.31 38.12,0.08 40.02,-0.12 41.93,-0.34 42.46,-0.31 43.00,-0.27 43.51,-0.11 44.02,0.05 44.48,0.33 44.94,0.61 45.32,0.99 45.70,1.37 45.97,1.84 46.25,2.30 46.40,2.81 46.56,3.33 46.59,3.86 46.62,4.40 46.52,4.93 46.42,5.46 46.19,5.94 45.97,6.43 45.64,6.85 45.30,7.28 44.88,7.60 44.45,7.93 43.96,8.15 43.47,8.37 42.94,8.46 42.41,8.56 39.02,9.23 35.63,9.91 31.47,10.66 27.30,11.40 23.52,11.85 19.74,12.30 17.67,12.93 15.60,13.55 15.09,13.55 14.57,13.55 14.07,13.43 13.56,13.31 13.11,13.07 12.65,12.83 12.26,12.49 11.87,12.14 11.58,11.72 11.28,11.29 11.10,10.81 10.92,10.33 10.85,9.82 10.79,9.30 10.85,8.79 10.91,8.28 11.10,7.79 11.28,7.31 11.57,6.88 11.86,6.46 12.25,6.11 12.64,5.77 13.09,5.53 13.55,5.29 14.05,5.16 14.55,5.04 18.13,5.34 21.70,5.64 26.09,5.89 30.47,6.14 34.36,6.22 38.25,6.31 41.05,6.18 43.86,6.06 46.49,5.94 49.12,5.82 49.62,5.88 50.12,5.94 50.58,6.12 51.05,6.30 51.47,6.59 51.88,6.87 52.21,7.25 52.55,7.63 52.78,8.08 53.01,8.52 53.13,9.01 53.25,9.50 53.25,10.00 53.25,10.50 53.13,10.99 53.00,11.48 52.77,11.92 52.53,12.37 52.20,12.74 51.87,13.12 51.45,13.40 51.04,13.69 50.57,13.87 50.10,14.04 49.60,14.10 49.10,14.16 44.11,15.16 39.13,16.15 33.11,16.74 27.08,17.33 23.44,17.94 19.80,18.55 19.38,18.55 18.96,18.55 18.56,18.45 18.16,18.35 17.79,18.16 17.42,17.96 17.11,17.69 16.80,17.41 16.57,17.07 16.33,16.72 16.18,16.34 16.04,15.95 15.99,15.53 15.94,15.12 15.99,14.71 16.04,14.30 16.19,13.91 16.33,13.52 16.57,13.18 16.81,12.84 17.12,12.56 17.43,12.29 17.80,12.09 18.17,11.90 18.57,11.80 18.97,11.70 24.97,12.00 30.97,12.30 34.72,12.35 38.46,12.41 41.49,12.31 44.53,12.21 46.39,12.04 48.26,11.88 48.75,11.94 49.24,12.00 49.71,12.18 50.17,12.36 50.57,12.64 50.98,12.93 51.30,13.30 51.63,13.67 51.86,14.11 52.08,14.55 52.20,15.03 52.32,15.51 52.31,16.01 52.31,16.50 52.19,16.98 52.07,17.46 51.83,17.90 51.60,18.34 51.27,18.71 50.94,19.07 50.53,19.35 50.12,19.63 49.66,19.80 49.19,19.98 48.70,20.03 48.21,20.09 45.10,21.20 41.99,22.32 37.68,23.18 33.38,24.04 28.76,24.67 24.15,25.30 20.75,25.70 17.35,26.10 17.05,26.31 16.74,26.51 16.29,26.50 15.84,26.49 15.41,26.37 14.97,26.25 14.58,26.03 14.19,25.81 13.86,25.50 13.53,25.20 13.28,24.82 13.04,24.44 12.89,24.02 12.74,23.60 12.70,23.15 12.66,22.70 12.72,22.26 12.79,21.81 12.96,21.39 13.13,20.98 13.39,20.61 13.66,20.25 14.00,19.96 14.34,19.67 14.75,19.47 15.15,19.27 15.59,19.18 16.03,19.08 20.72,19.32 25.40,19.56 30.55,19.97 35.69,20.38 39.25,20.44 42.81,20.50 46.08,20.22 49.36,19.93 49.84,20.01 50.32,20.08 50.77,20.26 51.22,20.45 51.61,20.73 52.00,21.02 52.31,21.39 52.62,21.76 52.84,22.20 53.05,22.63 53.16,23.11 53.26,23.58 53.25,24.07 53.23,24.55 53.10,25.02 52.97,25.49 52.74,25.91 52.50,26.34 52.17,26.69 51.84,27.04 51.43,27.31 51.02,27.57 50.57,27.73 50.11,27.89 49.62,27.94 49.14,27.98 40.51,30.01 31.89,32.03 25.10,32.95 18.32,33.87 13.26,34.77 8.20,35.66 7.20,36.27 6.21,36.87 5.78,36.90 5.35,36.94 4.92,36.86 4.49,36.79 4.10,36.62 3.70,36.45 3.36,36.19 3.01,35.93 2.74,35.59 2.47,35.26 2.29,34.86 2.10,34.47 2.02,34.05 1.93,33.63 1.95,33.19 1.97,32.76 2.09,32.35 2.22,31.93 2.43,31.56 2.65,31.19 2.95,30.88 3.25,30.57 3.62,30.34 3.99,30.11 4.40,29.98 4.81,29.84 7.47,29.96 10.12,30.08 14.94,30.29 19.75,30.50 24.07,31.20 28.39,31.91 31.75,32.07 35.11,32.23 37.34,32.11 39.56,31.98 40.03,32.07 40.49,32.16 40.93,32.35 41.36,32.55 41.74,32.84 42.11,33.14 42.40,33.51 42.70,33.89 42.89,34.32 43.08,34.76 43.17,35.23 43.25,35.69 43.22,36.17 43.20,36.65 43.05,37.10 42.91,37.55 42.66,37.96 42.42,38.37 42.08,38.70 41.74,39.04 41.33,39.28 40.93,39.53 40.47,39.67 40.02,39.81 39.54,39.84 39.07,39.87 30.49,41.32 21.92,42.77 15.18,43.75 8.44,44.72 4.74,45.21 1.04,45.70 0.62,45.72 0.21,45.74 -0.19,45.66 -0.60,45.57 -0.98,45.40 -1.35,45.22 -1.68,44.96 -2.00,44.70 -2.25,44.37 -2.51,44.03 -2.67,43.65 -2.84,43.27 -2.90,42.86 -2.97,42.45 -2.94,42.03 -2.91,41.62 -2.78,41.22 -2.65,40.83 -2.43,40.47 -2.21,40.12 -1.91,39.83 -1.61,39.54 -1.25,39.33 -0.89,39.12 -0.49,39.00 -0.09,38.88 3.86,38.92 7.83,38.95 12.94,38.87 18.06,38.80 22.05,38.74 26.05,38.69 28.90,38.50 31.75,38.30 34.98,38.22 38.22,38.13 39.01,38.01 39.80,37.88 40.29,37.94 40.79,38.00 41.25,38.17 41.72,38.34 42.13,38.62 42.54,38.90 42.87,39.27 43.21,39.64 43.44,40.08 43.67,40.52 43.79,41.00 43.92,41.49 43.92,41.98 43.92,42.48 43.81,42.96 43.69,43.45 43.46,43.89 43.23,44.33 42.91,44.70 42.58,45.08 42.17,45.36 41.76,45.65 41.30,45.83 40.84,46.01 40.34,46.07 39.85,46.13 36.58,46.77 33.31,47.41 29.63,48.07 25.96,48.73 23.31,49.42 20.67,50.11 20.18,50.14 19.70,50.17 19.22,50.08 18.74,50.00 18.30,49.80 17.86,49.60 17.48,49.30 17.10,49.00 16.80,48.62 16.50,48.24 16.30,47.79 16.11,47.35 16.02,46.88 15.93,46.40 15.96,45.92 15.99,45.43 16.14,44.97 16.28,44.51 16.53,44.09 16.78,43.68 17.13,43.34 17.47,42.99 17.88,42.74 18.30,42.49 18.76,42.35 19.22,42.21 24.65,42.75 30.08,43.29 35.23,43.46 40.38,43.63 43.27,43.23 46.16,42.83 48.37,42.53 50.59,42.23 51.22,42.08 51.84,41.94 52.34,41.97 52.84,42.00 53.31,42.16 53.79,42.31 54.21,42.57 54.64,42.83 54.99,43.19 55.34,43.54 55.59,43.97 55.85,44.40 55.99,44.88 56.14,45.35 56.16,45.85 56.19,46.35 56.09,46.84 56.00,47.33 55.79,47.78 55.58,48.23 55.27,48.62 54.96,49.01 54.57,49.32 54.17,49.62 53.72,49.82 53.26,50.03 52.77,50.11 52.28,50.20 47.98,51.01 43.68,51.81 38.77,52.75 33.86,53.69 30.36,54.48 26.87,55.28 25.71,55.76 24.55,56.24 24.09,56.28 23.64,56.32 23.18,56.25 22.73,56.18 22.31,56.00 21.89,55.83 21.52,55.55 21.16,55.28 20.87,54.93 20.57,54.58 20.38,54.17 20.18,53.76 20.08,53.31 19.99,52.86 20.00,52.40 20.02,51.95 20.14,51.51 20.27,51.07 20.49,50.67 20.72,50.27 21.04,49.94 21.35,49.61 21.73,49.36 22.12,49.12 22.55,48.97 22.98,48.82 29.32,49.15 35.65,49.47 39.66,49.30 43.67,49.12 45.71,48.80 47.74,48.48 48.18,48.50 48.63,48.53 49.05,48.66 49.48,48.79 49.86,49.02 50.24,49.25 50.56,49.56 50.87,49.87 51.10,50.25 51.33,50.63 51.47,51.06 51.60,51.48 51.63,51.93 51.66,52.37 51.58,52.81 51.50,53.25 51.32,53.65 51.14,54.06 50.86,54.41 50.59,54.76 50.24,55.04 49.89,55.31 49.49,55.50 49.08,55.68 48.64,55.76 48.21,55.85 46.31,57.15 44.42,58.45 41.14,59.70 37.87,60.94 35.36,61.86 32.84,62.77 31.55,63.24 30.26,63.70 29.74,63.79 29.22,63.89 28.69,63.85 28.16,63.82 27.66,63.66 27.16,63.50 26.71,63.22 26.26,62.95 25.89,62.58 25.52,62.20 25.25,61.75 24.98,61.30 24.82,60.79 24.67,60.29 24.64,59.76 24.61,59.23 24.71,58.72 24.80,58.20 25.02,57.72 25.24,57.24 25.57,56.82 25.89,56.41 26.31,56.09 26.73,55.76 27.21,55.55 27.69,55.34 30.13,55.90 32.57,56.46 34.69,56.67 36.82,56.89 40.27,57.17 43.72,57.44 45.85,57.40 47.98,57.35 48.33,57.34 48.67,57.33 49.22,57.42 49.77,57.50 50.28,57.72 50.79,57.94 51.24,58.27 51.69,58.61 52.04,59.04 52.39,59.47 52.63,59.97 52.87,60.47 52.98,61.02 53.09,61.57 53.07,62.12 53.05,62.68 52.90,63.21 52.74,63.75 52.46,64.23 52.19,64.71 51.80,65.11 51.41,65.52 50.94,65.81 50.47,66.11 49.95,66.29 49.42,66.47 48.86,66.51 48.31,66.56 45.00,67.23 41.69,67.90 40.16,68.02 38.62,68.15 37.89,68.46 37.16,68.77 36.37,68.83 35.57,68.89 34.80,68.70 34.03,68.50 33.36,68.07 32.69,67.64 32.20,67.02 31.70,66.39 31.43,65.65 31.16,64.90 31.15,64.10 31.13,63.31 31.36,62.55 31.60,61.79 32.07,61.15 32.54,60.50 33.18,60.04 33.83,59.58 34.59,59.35 35.36,59.12 36.15,59.15 36.95,59.17 37.69,59.45 38.44,59.73 39.05,60.23 39.67,60.73 40.10,61.40 40.52,62.07 40.71,62.85 40.90,63.62 40.83,64.41 40.76,65.21 40.44,65.93 40.12,66.66 39.59,67.25 39.06,67.84 38.36,68.23 37.67,68.62 36.89,68.76 36.10,68.91 35.32,68.80 34.53,68.69 33.82,68.33 33.11,67.97 32.55,67.41 31.99,66.84 31.64,66.13 31.29,65.41 31.19,64.63 31.08,63.84 31.24,63.06 31.39,62.28 31.78,61.59 32.18,60.90 32.77,60.37 33.37,59.84 33.37,59.84 33.37,59.84 36.38,59.11 39.38,58.38 44.03,57.85 48.67,57.33 49.22,57.42 49.77,57.50 50.28,57.72 50.79,57.94 51.24,58.27 51.69,58.61 52.04,59.04 52.39,59.47 52.63,59.97 52.87,60.47 52.98,61.02 53.09,61.56 53.07,62.12 53.05,62.68 52.90,63.21 52.74,63.75 52.46,64.23 52.19,64.71 51.80,65.11 51.41,65.52 50.94,65.81 50.47,66.11 49.95,66.29 49.42,66.47 48.86,66.51 48.31,66.56 47.97,66.47 47.63,66.39 45.45,66.17 43.27,65.96 39.27,65.84 35.28,65.72 32.77,64.71 30.26,63.70 29.74,63.79 29.22,63.89 28.69,63.85 28.17,63.82 27.66,63.66 27.16,63.50 26.71,63.23 26.26,62.95 25.89,62.58 25.52,62.20 25.25,61.75 24.98,61.30 24.82,60.79 24.67,60.29 24.64,59.76 24.61,59.23 24.71,58.72 24.80,58.20 25.02,57.72 25.24,57.24 25.57,56.82 25.89,56.41 26.31,56.09 26.73,55.76 27.21,55.55 27.69,55.34 29.07,55.16 30.45,54.97 32.89,54.38 35.32,53.78 38.27,52.81 41.22,51.83 44.48,50.16 47.74,48.48 48.18,48.50 48.63,48.53 49.05,48.66 49.48,48.79 49.86,49.02 50.24,49.25 50.56,49.56 50.87,49.87 51.10,50.25 51.33,50.63 51.47,51.06 51.60,51.48 51.63,51.93 51.66,52.37 51.58,52.81 51.50,53.25 51.32,53.65 51.14,54.06 50.86,54.41 50.59,54.76 50.24,55.04 49.89,55.31 49.49,55.50 49.08,55.68 48.64,55.76 48.21,55.85 46.15,55.75 44.09,55.65 39.83,56.00 35.57,56.35 30.06,56.30 24.55,56.24 24.09,56.28 23.64,56.32 23.18,56.25 22.73,56.18 22.31,56.00 21.89,55.83 21.52,55.55 21.16,55.28 20.87,54.93 20.57,54.58 20.38,54.17 20.18,53.76 20.08,53.31 19.99,52.86 20.00,52.40 20.02,51.95 20.14,51.51 20.27,51.07 20.49,50.67 20.72,50.27 21.04,49.94 21.35,49.61 21.73,49.37 22.12,49.12 22.55,48.97 22.98,48.82 24.22,48.68 25.45,48.54 28.94,47.86 32.44,47.18 37.20,46.01 41.97,44.84 46.91,43.39 51.84,41.94 52.34,41.97 52.84,42.00 53.31,42.16 53.79,42.31 54.21,42.57 54.64,42.83 54.99,43.18 55.34,43.54 55.59,43.97 55.85,44.40 55.99,44.87 56.14,45.35 56.16,45.85 56.19,46.35 56.09,46.84 56.00,47.33 55.79,47.78 55.58,48.23 55.27,48.62 54.96,49.01 54.57,49.32 54.17,49.62 53.72,49.82 53.26,50.03 52.77,50.11 52.28,50.20 49.53,50.08 46.78,49.96 43.55,50.10 40.32,50.24 35.13,50.32 29.93,50.40 25.30,50.26 20.67,50.11 20.18,50.14 19.70,50.17 19.22,50.08 18.75,50.00 18.30,49.80 17.86,49.60 17.48,49.30 17.10,49.00 16.80,48.62 16.50,48.24 16.30,47.79 16.11,47.35 16.02,46.88 15.93,46.40 15.96,45.92 15.99,45.43 16.14,44.97 16.28,44.51 16.53,44.09 16.78,43.68 17.13,43.34 17.47,42.99 17.88,42.74 18.30,42.49 18.76,42.35 19.22,42.21 21.92,41.77 24.61,41.33 28.10,40.68 31.59,40.04 35.69,38.96 39.80,37.88 40.29,37.94 40.79,38.00 41.25,38.17 41.72,38.34 42.13,38.62 42.54,38.90 42.87,39.27 43.21,39.64 43.44,40.08 43.67,40.52 43.79,41.00 43.92,41.49 43.92,41.98 43.92,42.48 43.81,42.96 43.69,43.45 43.46,43.89 43.23,44.33 42.91,44.70 42.58,45.08 42.17,45.36 41.76,45.65 41.30,45.83 40.84,46.01 40.34,46.07 39.85,46.13 39.06,46.02 38.26,45.92 35.07,45.87 31.87,45.82 29.05,45.72 26.24,45.62 22.32,45.78 18.40,45.94 13.00,46.36 7.60,46.79 4.32,46.24 1.04,45.70 0.62,45.72 0.21,45.74 -0.19,45.66 -0.60,45.57 -0.98,45.40 -1.35,45.22 -1.68,44.96 -2.00,44.70 -2.25,44.37 -2.51,44.03 -2.67,43.65 -2.84,43.27 -2.90,42.86 -2.97,42.45 -2.94,42.03 -2.91,41.62 -2.78,41.22 -2.65,40.83 -2.43,40.47 -2.21,40.12 -1.91,39.83 -1.61,39.54 -1.25,39.33 -0.89,39.12 -0.49,39.00 -0.09,38.88 3.60,38.42 7.31,37.96 13.94,36.70 20.56,35.44 27.54,33.95 34.51,32.46 37.03,32.22 39.56,31.98 40.03,32.07 40.49,32.16 40.93,32.35 41.36,32.55 41.74,32.84 42.11,33.14 42.40,33.51 42.70,33.89 42.89,34.32 43.08,34.76 43.17,35.23 43.25,35.69 43.22,36.17 43.20,36.64 43.05,37.10 42.91,37.55 42.66,37.96 42.42,38.37 42.08,38.70 41.74,39.04 41.33,39.28 40.93,39.53 40.47,39.67 40.02,39.81 39.54,39.84 39.07,39.87 36.84,39.43 34.61,39.00 31.03,38.64 27.45,38.28 23.54,37.77 19.64,37.26 12.92,37.06 6.21,36.87 5.78,36.90 5.35,36.94 4.92,36.86 4.49,36.79 4.10,36.62 3.70,36.45 3.36,36.19 3.01,35.93 2.74,35.59 2.47,35.26 2.29,34.87 2.10,34.47 2.02,34.05 1.93,33.63 1.95,33.20 1.97,32.76 2.09,32.35 2.22,31.93 2.43,31.56 2.65,31.19 2.95,30.88 3.25,30.57 3.62,30.34 3.99,30.11 4.40,29.98 4.81,29.84 5.86,29.58 6.91,29.32 12.07,28.17 17.24,27.03 23.69,25.86 30.14,24.70 39.75,22.32 49.36,19.93 49.84,20.01 50.32,20.08 50.77,20.26 51.22,20.45 51.61,20.73 52.00,21.02 52.31,21.39 52.62,21.76 52.84,22.20 53.05,22.63 53.15,23.11 53.26,23.58 53.25,24.07 53.23,24.55 53.10,25.02 52.98,25.49 52.74,25.91 52.50,26.33 52.17,26.69 51.84,27.04 51.43,27.31 51.02,27.57 50.57,27.73 50.11,27.89 49.62,27.94 49.14,27.98 47.97,27.80 46.79,27.62 44.68,27.36 42.56,27.10 38.93,26.89 35.31,26.68 30.31,26.47 25.32,26.26 21.03,26.39 16.74,26.51 16.29,26.50 15.84,26.49 15.41,26.37 14.98,26.25 14.58,26.03 14.19,25.81 13.86,25.50 13.53,25.20 13.28,24.82 13.04,24.44 12.89,24.02 12.74,23.60 12.70,23.15 12.66,22.70 12.72,22.26 12.79,21.81 12.96,21.39 13.13,20.98 13.39,20.61 13.66,20.25 14.00,19.96 14.34,19.67 14.75,19.47 15.15,19.27 15.59,19.18 16.03,19.08 16.25,19.01 16.48,18.95 19.74,18.71 23.00,18.47 27.28,17.60 31.56,16.73 38.05,15.37 44.55,14.01 46.41,12.94 48.26,11.88 48.75,11.94 49.24,12.00 49.70,12.18 50.17,12.36 50.57,12.64 50.98,12.93 51.30,13.30 51.63,13.67 51.86,14.11 52.08,14.55 52.20,15.03 52.32,15.51 52.31,16.01 52.31,16.50 52.19,16.98 52.07,17.46 51.83,17.90 51.60,18.34 51.27,18.71 50.94,19.07 50.53,19.35 50.12,19.63 49.66,19.80 49.19,19.98 48.70,20.03 48.21,20.09 46.34,19.91 44.48,19.72 41.43,19.59 38.38,19.45 34.59,19.41 30.79,19.38 25.29,18.96 19.80,18.55 19.38,18.55 18.97,18.55 18.56,18.45 18.16,18.35 17.79,18.16 17.42,17.96 17.11,17.69 16.80,17.41 16.57,17.07 16.33,16.73 16.18,16.34 16.04,15.95 15.99,15.54 15.94,15.12 15.99,14.71 16.04,14.30 16.19,13.91 16.33,13.52 16.57,13.18 16.81,12.84 17.12,12.56 17.43,12.29 17.80,12.09 18.17,11.90 18.57,11.80 18.97,11.70 22.62,11.14 26.27,10.58 31.99,9.75 37.71,8.92 43.41,7.37 49.12,5.82 49.62,5.88 50.11,5.94 50.58,6.12 51.05,6.30 51.47,6.59 51.88,6.87 52.21,7.25 52.55,7.63 52.78,8.07 53.01,8.52 53.13,9.01 53.25,9.50 53.25,10.00 53.25,10.50 53.13,10.99 53.00,11.48 52.77,11.92 52.53,12.37 52.20,12.74 51.87,13.12 51.45,13.40 51.04,13.69 50.57,13.87 50.10,14.04 49.60,14.10 49.10,14.16 46.47,14.04 43.84,13.91 41.03,13.77 38.22,13.64 34.32,13.69 30.41,13.74 25.94,13.92 21.46,14.09 18.53,13.82 15.60,13.55 15.09,13.55 14.57,13.55 14.07,13.43 13.57,13.31 13.11,13.07 12.65,12.83 12.26,12.49 11.87,12.14 11.58,11.72 11.28,11.29 11.10,10.81 10.92,10.33 10.85,9.82 10.79,9.30 10.85,8.79 10.91,8.28 11.10,7.79 11.28,7.31 11.57,6.88 11.86,6.46 12.25,6.11 12.64,5.77 13.09,5.53 13.55,5.29 14.05,5.16 14.55,5.04 16.66,4.72 18.76,4.39 22.09,3.96 25.42,3.54 29.86,2.22 34.30,0.91 38.11,0.28 41.93,-0.34 42.46,-0.31 43.00,-0.27 43.51,-0.11 44.02,0.05 44.48,0.33 44.94,0.61 45.32,0.99 45.70,1.37 45.97,1.83 46.25,2.30 46.40,2.81 46.56,3.33 46.59,3.86 46.62,4.40 46.52,4.93 46.42,5.46 46.19,5.94 45.97,6.43 45.64,6.85 45.30,7.28 44.88,7.60 44.45,7.93 43.96,8.15 43.47,8.37 42.94,8.46 42.41,8.56 40.49,8.48 38.57,8.41 35.55,8.53 32.54,8.65 29.07,9.05 25.60,9.46 20.96,9.99 16.31,10.52 13.81,10.30 11.32,10.09 10.78,10.09 10.25,10.09 9.73,9.95 9.20,9.82 8.73,9.57 8.25,9.31 7.86,8.95 7.46,8.59 7.15,8.15 6.85,7.70 6.66,7.20 6.48,6.69 6.42,6.16 6.36,5.62 6.43,5.09 6.49,4.55 6.69,4.05 6.88,3.55 7.19,3.11 7.50,2.67 7.91,2.32 8.31,1.96 8.79,1.72 9.27,1.47 9.79,1.35 10.32,1.22 12.92,1.09 15.51,0.95 20.03,0.16 24.55,-0.63 27.34,-1.19 30.13,-1.75 34.81,-2.71 39.49,-3.68 40.05,-3.60 40.60,-3.52 41.12,-3.31 41.64,-3.10 42.10,-2.77 42.55,-2.44 42.92,-2.01 43.28,-1.58 43.53,-1.08 43.78,-0.57 43.90,-0.02 44.02,0.51 44.01,1.08 44.00,1.64 43.85,2.18 43.70,2.72 43.43,3.22 43.16,3.71 42.78,4.12 42.39,4.53 41.92,4.84 41.46,5.15 40.93,5.34 40.40,5.52 39.84,5.58 39.28,5.63 37.21,5.38 35.14,5.13 31.88,5.02 28.63,4.91 24.26,4.93 19.89,4.96 16.49,4.06 13.10,3.17 12.50,3.24 11.90,3.32 11.31,3.26 10.71,3.19 10.14,2.98 9.58,2.77 9.08,2.44 8.58,2.10 8.18,1.65 7.77,1.21 7.49,0.68 7.20,0.15 7.05,-0.42 6.90,-1.01 6.90,-1.61 6.89,-2.21 7.03,-2.80 7.17,-3.38 7.44,-3.92 7.72,-4.45 8.11,-4.91 8.50,-5.36 9.00,-5.71 9.49,-6.06 10.05,-6.28 10.61,-6.49 13.23,-6.91 15.84,-7.34 20.12,-8.82 24.40,-10.30 27.41,-10.87 30.43,-11.44 35.81,-12.28 41.19,-13.12 44.99,-14.09 48.78,-15.07 49.56,-14.88 50.33,-14.68 51.04,-14.31 51.74,-13.93 52.34,-13.40 52.93,-12.87 53.38,-12.21 53.83,-11.55 54.12,-10.80 54.40,-10.06 54.49,-9.26 54.58,-8.47 54.48,-7.68 54.38,-6.89 54.10,-6.14 53.81,-5.40 53.35,-4.74 52.90,-4.09 52.30,-3.56 51.70,-3.03 50.99,-2.66 50.28,-2.29 49.51,-2.11 48.73,-1.92 47.93,-1.92 47.13,-1.92 46.38,-2.31 45.63,-2.69 43.32,-3.15 41.02,-3.61 37.97,-3.71 34.91,-3.81 32.72,-3.91 30.52,-4.00 28.13,-3.61 25.74,-3.21 23.31,-2.65 20.88,-2.10 17.26,-0.96 13.64,0.16 10.82,1.26 8.01,2.35 4.89,3.60 1.76,4.85 1.15,4.99 0.55,5.13 -0.07,5.12 -0.69,5.11 -1.29,4.96 -1.89,4.80 -2.44,4.50 -2.99,4.20 -3.45,3.79 -3.91,3.37 -4.25,2.85 -4.60,2.33 -4.81,1.75 -5.03,1.16 -5.09,0.54 -5.16,-0.07 -5.08,-0.68 -4.99,-1.30 -4.76,-1.88 -4.53,-2.46 -4.17,-2.97 -3.81,-3.47 -3.34,-3.88 -2.87,-4.29 -2.31,-4.57 -1.76,-4.85 -1.76,-4.85 L -1.76,-4.85 Z"></path></g><g transform="translate(26.73147863663735 84.41824817005545) rotate(0 40.5 -18)" stroke="none"><path fill="#343a40" d="M -4.11,-0.41 Q -4.11,-0.41 -3.89,-3.29 -3.68,-6.17 -3.27,-9.46 -2.86,-12.75 -2.73,-15.70 -2.59,-18.66 -2.39,-22.48 -2.18,-26.30 -2.20,-29.38 -2.22,-32.46 -2.28,-32.91 -2.33,-33.37 -2.26,-33.88 -2.20,-34.40 -2.01,-34.88 -1.82,-35.37 -1.52,-35.80 -1.22,-36.22 -0.82,-36.56 -0.43,-36.90 0.02,-37.14 0.49,-37.38 0.99,-37.50 1.50,-37.62 2.02,-37.61 2.54,-37.61 3.04,-37.48 3.55,-37.35 4.01,-37.10 4.46,-36.85 4.85,-36.50 5.24,-36.15 5.53,-35.72 5.82,-35.29 6.00,-34.80 6.18,-34.31 6.24,-33.80 6.29,-33.28 6.60,-29.45 6.92,-25.62 7.02,-21.11 7.12,-16.61 7.67,-14.40 8.21,-12.19 5.87,-11.51 3.53,-10.83 3.61,-13.49 3.69,-16.16 4.25,-19.64 4.81,-23.12 4.91,-25.47 5.00,-27.82 5.26,-28.84 5.52,-29.86 5.64,-30.44 5.76,-31.02 6.01,-31.56 6.26,-32.10 6.64,-32.57 7.01,-33.03 7.49,-33.39 7.97,-33.75 8.51,-33.98 9.06,-34.22 9.65,-34.32 10.24,-34.42 10.83,-34.37 11.43,-34.32 11.99,-34.14 12.56,-33.95 13.06,-33.63 13.57,-33.32 13.98,-32.89 14.40,-32.46 14.70,-31.94 15.00,-31.43 15.16,-30.86 15.33,-30.28 15.36,-29.69 15.38,-29.09 15.31,-22.71 15.24,-16.32 15.03,-11.37 14.83,-6.41 15.59,-4.56 16.34,-2.71 16.29,-2.21 16.23,-1.70 16.05,-1.23 15.87,-0.75 15.59,-0.33 15.30,0.08 14.92,0.42 14.54,0.76 14.09,0.99 13.64,1.23 13.15,1.36 12.66,1.48 12.15,1.49 11.64,1.49 11.15,1.37 10.65,1.25 10.20,1.02 9.75,0.78 9.37,0.45 8.99,0.11 8.70,-0.29 8.40,-0.71 8.22,-1.18 8.04,-1.66 7.97,-2.16 7.91,-2.67 9.44,-4.82 10.96,-6.98 12.10,-10.42 13.23,-13.85 13.91,-17.64 14.60,-21.42 14.68,-23.71 14.76,-26.00 14.71,-27.87 14.66,-29.74 14.78,-30.23 14.90,-30.72 15.13,-31.17 15.36,-31.62 15.70,-32.00 16.03,-32.38 16.44,-32.67 16.86,-32.96 17.33,-33.14 17.80,-33.32 18.30,-33.38 18.80,-33.45 19.31,-33.39 19.81,-33.33 20.28,-33.15 20.75,-32.98 21.17,-32.69 21.59,-32.41 21.93,-32.03 22.26,-31.65 22.50,-31.21 22.74,-30.76 22.86,-30.27 22.98,-29.78 22.99,-29.28 22.99,-28.77 23.49,-26.43 23.99,-24.10 24.13,-18.68 24.26,-13.26 24.88,-10.22 25.50,-7.18 26.29,-6.45 27.09,-5.72 27.13,-5.24 27.17,-4.75 27.10,-4.26 27.02,-3.78 26.83,-3.33 26.64,-2.88 26.35,-2.49 26.06,-2.09 25.68,-1.78 25.30,-1.47 24.86,-1.26 24.42,-1.05 23.94,-0.95 23.46,-0.85 22.97,-0.86 22.48,-0.88 22.01,-1.01 21.54,-1.15 21.12,-1.39 20.69,-1.63 20.34,-1.97 19.98,-2.31 19.72,-2.72 19.46,-3.13 19.30,-3.60 19.14,-4.06 19.79,-6.51 20.44,-8.96 21.89,-13.96 23.34,-18.95 24.31,-22.88 25.28,-26.80 25.46,-28.84 25.65,-30.87 25.80,-31.32 25.95,-31.76 26.21,-32.15 26.47,-32.55 26.81,-32.87 27.15,-33.19 27.56,-33.42 27.97,-33.65 28.42,-33.77 28.87,-33.89 29.34,-33.91 29.81,-33.92 30.27,-33.82 30.73,-33.72 31.15,-33.51 31.57,-33.31 31.93,-33.01 32.29,-32.71 32.56,-32.33 32.84,-31.95 33.02,-31.51 33.20,-31.08 33.27,-30.62 33.33,-30.15 33.29,-29.69 33.25,-29.22 33.39,-26.85 33.54,-24.47 33.56,-20.59 33.58,-16.70 33.61,-13.05 33.64,-9.40 33.83,-7.57 34.03,-5.73 33.97,-5.25 33.92,-4.77 33.75,-4.31 33.58,-3.85 33.30,-3.45 33.03,-3.04 32.67,-2.72 32.30,-2.39 31.87,-2.16 31.44,-1.93 30.97,-1.81 30.50,-1.69 30.01,-1.68 29.52,-1.68 29.05,-1.79 28.57,-1.91 28.14,-2.13 27.70,-2.35 27.34,-2.67 26.97,-3.00 26.69,-3.39 26.41,-3.79 26.23,-4.25 26.05,-4.70 25.99,-5.19 25.93,-5.67 27.31,-9.13 28.69,-12.59 29.32,-15.45 29.95,-18.30 30.33,-21.90 30.72,-25.51 30.71,-26.62 30.70,-27.72 30.80,-28.21 30.90,-28.69 31.12,-29.14 31.33,-29.58 31.65,-29.96 31.96,-30.34 32.35,-30.64 32.75,-30.94 33.21,-31.13 33.66,-31.32 34.15,-31.40 34.64,-31.47 35.13,-31.43 35.62,-31.39 36.09,-31.23 36.56,-31.07 36.97,-30.81 37.39,-30.54 37.73,-30.19 38.07,-29.83 38.32,-29.40 38.56,-28.97 38.70,-28.50 38.83,-28.02 38.85,-27.53 38.87,-27.03 40.05,-22.87 41.22,-18.70 41.47,-15.05 41.71,-11.39 42.25,-9.36 42.78,-7.32 42.75,-6.79 42.72,-6.27 42.57,-5.76 42.42,-5.26 42.15,-4.81 41.88,-4.35 41.51,-3.98 41.14,-3.60 40.69,-3.33 40.25,-3.05 39.74,-2.89 39.24,-2.73 38.72,-2.69 38.19,-2.66 37.67,-2.75 37.15,-2.84 36.67,-3.05 36.19,-3.26 35.77,-3.59 35.36,-3.91 35.03,-4.32 34.70,-4.73 34.48,-5.21 34.26,-5.69 34.16,-6.21 34.06,-6.72 36.05,-9.58 38.05,-12.43 39.44,-15.82 40.83,-19.22 41.40,-21.92 41.97,-24.62 42.48,-27.52 43.00,-30.42 43.13,-31.42 43.26,-32.42 43.43,-32.93 43.60,-33.44 43.88,-33.89 44.17,-34.35 44.55,-34.72 44.94,-35.09 45.40,-35.36 45.86,-35.63 46.38,-35.78 46.89,-35.93 47.43,-35.96 47.96,-35.98 48.49,-35.87 49.01,-35.77 49.50,-35.54 49.98,-35.31 50.40,-34.98 50.81,-34.64 51.14,-34.21 51.46,-33.79 51.67,-33.29 51.88,-32.80 51.97,-32.27 52.06,-31.74 52.02,-31.21 51.98,-30.68 51.89,-27.27 51.80,-23.87 51.74,-19.88 51.68,-15.89 51.77,-12.82 51.86,-9.76 52.62,-8.37 53.37,-6.98 53.31,-6.47 53.26,-5.97 53.08,-5.49 52.90,-5.01 52.61,-4.59 52.32,-4.16 51.94,-3.82 51.56,-3.48 51.11,-3.24 50.66,-3.00 50.17,-2.87 49.67,-2.75 49.16,-2.75 48.65,-2.74 48.15,-2.86 47.65,-2.98 47.20,-3.22 46.75,-3.45 46.36,-3.79 45.98,-4.12 45.68,-4.54 45.39,-4.96 45.21,-5.44 45.02,-5.91 44.96,-6.42 44.89,-6.93 46.23,-8.62 47.56,-10.31 47.69,-12.71 47.81,-15.11 48.87,-19.03 49.93,-22.96 50.45,-24.98 50.96,-26.99 51.13,-27.46 51.30,-27.93 51.58,-28.35 51.85,-28.76 52.22,-29.10 52.59,-29.43 53.03,-29.67 53.47,-29.91 53.95,-30.04 54.43,-30.17 54.93,-30.17 55.43,-30.18 55.91,-30.07 56.40,-29.96 56.85,-29.73 57.29,-29.51 57.67,-29.18 58.05,-28.86 58.34,-28.45 58.63,-28.05 58.81,-27.58 59.00,-27.12 59.06,-26.62 59.13,-26.13 59.08,-25.63 59.03,-25.14 59.57,-22.86 60.11,-20.58 59.94,-16.07 59.77,-11.56 59.94,-9.11 60.11,-6.67 60.05,-6.17 60.00,-5.67 59.82,-5.20 59.65,-4.74 59.37,-4.32 59.10,-3.91 58.73,-3.57 58.36,-3.24 57.92,-3.00 57.48,-2.76 56.99,-2.64 56.51,-2.51 56.01,-2.50 55.51,-2.50 55.02,-2.61 54.54,-2.73 54.09,-2.95 53.65,-3.18 53.27,-3.51 52.89,-3.83 52.60,-4.24 52.32,-4.65 52.13,-5.11 51.95,-5.58 51.89,-6.07 51.82,-6.57 52.54,-10.21 53.26,-13.85 53.52,-17.32 53.78,-20.80 53.88,-23.27 53.98,-25.74 54.33,-26.01 54.68,-26.29 54.77,-26.81 54.86,-27.34 55.07,-27.82 55.28,-28.31 55.61,-28.73 55.93,-29.15 56.34,-29.49 56.76,-29.82 57.24,-30.04 57.72,-30.26 58.24,-30.37 58.76,-30.47 59.29,-30.44 59.82,-30.41 60.33,-30.26 60.84,-30.11 61.30,-29.84 61.76,-29.57 62.14,-29.20 62.52,-28.83 62.80,-28.38 63.08,-27.93 63.24,-27.42 63.40,-26.92 63.44,-26.39 63.48,-25.86 63.96,-21.33 64.44,-16.79 65.11,-13.59 65.77,-10.38 65.86,-10.15 65.95,-9.92 65.95,-9.31 65.95,-8.70 65.80,-8.11 65.65,-7.51 65.36,-6.97 65.08,-6.43 64.67,-5.97 64.26,-5.51 63.76,-5.17 63.25,-4.82 62.68,-4.61 62.10,-4.39 61.49,-4.32 60.88,-4.25 60.28,-4.33 59.67,-4.40 59.10,-4.62 58.52,-4.84 58.02,-5.19 57.52,-5.54 57.11,-6.00 56.71,-6.46 56.43,-7.01 56.15,-7.55 56.00,-8.15 55.86,-8.74 56.98,-11.88 58.10,-15.03 59.13,-18.46 60.16,-21.89 60.54,-25.08 60.93,-28.27 61.17,-28.64 61.41,-29.02 61.57,-29.61 61.74,-30.21 62.04,-30.74 62.34,-31.28 62.76,-31.73 63.18,-32.18 63.69,-32.52 64.21,-32.85 64.79,-33.05 65.37,-33.26 65.99,-33.32 66.60,-33.37 67.21,-33.28 67.82,-33.19 68.39,-32.96 68.96,-32.72 69.45,-32.36 69.95,-32.00 70.35,-31.53 70.74,-31.06 71.01,-30.50 71.28,-29.95 71.42,-29.35 71.55,-28.75 71.53,-28.13 71.51,-27.52 72.28,-22.57 73.04,-17.62 73.24,-14.91 73.44,-12.21 74.30,-11.18 75.16,-10.16 75.26,-9.56 75.36,-8.97 75.32,-8.37 75.28,-7.76 75.10,-7.19 74.91,-6.61 74.59,-6.10 74.28,-5.58 73.85,-5.16 73.41,-4.73 72.89,-4.42 72.37,-4.12 71.80,-3.94 71.22,-3.77 70.61,-3.74 70.01,-3.70 69.41,-3.82 68.82,-3.93 68.27,-4.18 67.72,-4.44 67.25,-4.81 66.78,-5.19 66.41,-5.67 66.04,-6.15 65.80,-6.70 65.55,-7.26 66.73,-11.36 67.91,-15.47 68.68,-17.46 69.44,-19.46 69.56,-19.51 69.68,-19.56 69.98,-20.11 70.28,-20.67 70.70,-21.13 71.12,-21.60 71.64,-21.95 72.16,-22.30 72.75,-22.52 73.34,-22.74 73.96,-22.81 74.59,-22.87 75.21,-22.79 75.83,-22.71 76.42,-22.48 77.00,-22.25 77.51,-21.89 78.03,-21.53 78.44,-21.06 78.85,-20.58 79.14,-20.02 79.42,-19.47 79.57,-18.85 79.71,-18.24 79.70,-17.62 79.70,-16.99 79.54,-16.38 79.39,-15.77 77.17,-16.05 74.95,-16.32 75.34,-16.99 75.73,-17.65 76.30,-18.42 76.86,-19.19 77.64,-19.74 78.41,-20.29 79.33,-20.57 80.24,-20.84 81.19,-20.81 82.15,-20.78 83.04,-20.44 83.93,-20.10 84.67,-19.50 85.41,-18.90 85.92,-18.09 86.43,-17.29 86.65,-16.36 86.87,-15.43 86.79,-14.48 86.70,-13.53 86.32,-12.66 85.94,-11.79 85.30,-11.08 84.65,-10.38 83.82,-9.91 82.99,-9.45 82.05,-9.28 81.11,-9.10 80.17,-9.24 79.22,-9.37 78.37,-9.80 77.52,-10.23 76.85,-10.91 76.18,-11.59 75.77,-12.45 75.35,-13.31 75.23,-14.25 75.10,-15.20 75.29,-16.13 75.48,-17.07 75.95,-17.89 76.43,-18.72 77.14,-19.35 77.86,-19.98 78.74,-20.35 79.61,-20.72 80.57,-20.80 81.52,-20.87 82.44,-20.63 83.36,-20.39 84.16,-19.87 84.96,-19.35 85.55,-18.61 86.15,-17.86 86.47,-16.96 86.79,-16.06 86.81,-15.11 86.83,-14.16 86.54,-13.25 86.26,-12.34 86.26,-12.34 86.26,-12.34 84.42,-9.93 82.58,-7.53 80.57,-6.73 78.56,-5.93 75.08,-7.30 71.60,-8.67 70.95,-11.04 70.31,-13.41 70.00,-16.48 69.68,-19.56 69.98,-20.11 70.28,-20.67 70.70,-21.13 71.12,-21.60 71.64,-21.95 72.16,-22.30 72.75,-22.52 73.34,-22.74 73.96,-22.80 74.59,-22.87 75.21,-22.79 75.83,-22.71 76.42,-22.48 77.00,-22.25 77.51,-21.89 78.03,-21.53 78.44,-21.06 78.85,-20.58 79.14,-20.02 79.42,-19.47 79.57,-18.85 79.71,-18.24 79.70,-17.62 79.70,-16.99 79.54,-16.38 79.39,-15.77 78.89,-15.38 78.39,-14.98 76.77,-12.57 75.16,-10.16 75.26,-9.57 75.36,-8.97 75.32,-8.37 75.28,-7.76 75.10,-7.19 74.91,-6.61 74.59,-6.10 74.28,-5.58 73.85,-5.16 73.41,-4.73 72.89,-4.43 72.37,-4.12 71.80,-3.94 71.22,-3.77 70.61,-3.74 70.01,-3.70 69.42,-3.82 68.82,-3.93 68.27,-4.18 67.72,-4.44 67.25,-4.81 66.78,-5.19 66.41,-5.67 66.04,-6.15 65.80,-6.70 65.55,-7.26 64.86,-9.47 64.17,-11.68 64.10,-14.32 64.03,-16.96 63.71,-20.19 63.40,-23.41 62.40,-26.21 61.41,-29.02 61.57,-29.61 61.74,-30.20 62.04,-30.74 62.34,-31.28 62.76,-31.73 63.18,-32.18 63.69,-32.52 64.21,-32.85 64.79,-33.05 65.37,-33.26 65.99,-33.32 66.60,-33.37 67.21,-33.28 67.82,-33.19 68.39,-32.96 68.95,-32.72 69.45,-32.36 69.95,-32.00 70.35,-31.53 70.74,-31.06 71.01,-30.50 71.28,-29.95 71.42,-29.35 71.55,-28.75 71.53,-28.13 71.51,-27.52 70.79,-25.78 70.07,-24.04 69.54,-21.95 69.01,-19.86 67.48,-14.89 65.95,-9.93 65.95,-9.31 65.95,-8.70 65.80,-8.11 65.65,-7.51 65.36,-6.97 65.08,-6.43 64.67,-5.97 64.26,-5.51 63.76,-5.17 63.25,-4.82 62.68,-4.61 62.10,-4.39 61.49,-4.32 60.89,-4.25 60.28,-4.33 59.67,-4.40 59.10,-4.62 58.52,-4.84 58.02,-5.19 57.52,-5.54 57.11,-6.00 56.71,-6.46 56.43,-7.01 56.15,-7.55 56.00,-8.15 55.86,-8.74 55.80,-10.11 55.74,-11.49 55.48,-13.93 55.22,-16.36 55.21,-18.65 55.21,-20.93 54.94,-23.61 54.68,-26.29 54.77,-26.81 54.86,-27.34 55.07,-27.82 55.28,-28.31 55.61,-28.73 55.93,-29.15 56.34,-29.49 56.76,-29.82 57.24,-30.04 57.72,-30.26 58.24,-30.37 58.76,-30.47 59.29,-30.44 59.82,-30.41 60.33,-30.26 60.84,-30.11 61.30,-29.84 61.76,-29.57 62.14,-29.20 62.52,-28.83 62.80,-28.38 63.08,-27.93 63.24,-27.42 63.40,-26.92 63.44,-26.39 63.48,-25.86 62.48,-23.07 61.47,-20.28 61.24,-16.38 61.00,-12.47 60.55,-9.57 60.11,-6.67 60.05,-6.17 60.00,-5.67 59.83,-5.20 59.65,-4.74 59.37,-4.32 59.10,-3.91 58.73,-3.57 58.36,-3.24 57.92,-3.00 57.48,-2.76 56.99,-2.64 56.51,-2.51 56.01,-2.50 55.51,-2.50 55.03,-2.61 54.54,-2.73 54.09,-2.95 53.65,-3.18 53.27,-3.51 52.89,-3.83 52.61,-4.24 52.32,-4.65 52.13,-5.11 51.95,-5.58 51.89,-6.07 51.82,-6.57 51.94,-9.02 52.06,-11.47 51.79,-15.79 51.52,-20.11 51.24,-23.55 50.96,-26.99 51.13,-27.46 51.30,-27.93 51.58,-28.35 51.85,-28.76 52.22,-29.10 52.59,-29.43 53.03,-29.67 53.47,-29.91 53.95,-30.04 54.43,-30.17 54.93,-30.17 55.43,-30.18 55.91,-30.07 56.40,-29.96 56.85,-29.73 57.29,-29.51 57.67,-29.18 58.05,-28.86 58.34,-28.45 58.63,-28.05 58.81,-27.58 59.00,-27.12 59.06,-26.63 59.13,-26.13 59.08,-25.64 59.03,-25.14 58.19,-23.19 57.35,-21.25 56.58,-17.20 55.80,-13.16 54.59,-10.07 53.37,-6.98 53.31,-6.47 53.26,-5.97 53.08,-5.49 52.90,-5.01 52.61,-4.59 52.32,-4.16 51.94,-3.82 51.56,-3.48 51.11,-3.24 50.66,-3.00 50.17,-2.87 49.67,-2.75 49.16,-2.75 48.65,-2.74 48.15,-2.86 47.65,-2.98 47.20,-3.22 46.75,-3.45 46.36,-3.79 45.98,-4.12 45.68,-4.54 45.39,-4.96 45.21,-5.44 45.02,-5.91 44.96,-6.42 44.89,-6.93 44.48,-8.19 44.07,-9.45 44.12,-12.63 44.17,-15.80 44.02,-19.72 43.88,-23.65 43.57,-28.03 43.26,-32.42 43.43,-32.93 43.60,-33.44 43.88,-33.89 44.17,-34.35 44.55,-34.72 44.94,-35.09 45.40,-35.36 45.86,-35.63 46.38,-35.78 46.89,-35.93 47.43,-35.96 47.96,-35.98 48.49,-35.87 49.01,-35.77 49.50,-35.54 49.98,-35.31 50.40,-34.98 50.81,-34.64 51.14,-34.21 51.46,-33.79 51.67,-33.29 51.88,-32.80 51.97,-32.27 52.06,-31.75 52.02,-31.21 51.98,-30.68 51.60,-29.72 51.23,-28.77 50.55,-25.72 49.88,-22.67 48.99,-19.48 48.10,-16.29 45.44,-11.80 42.78,-7.32 42.75,-6.79 42.72,-6.27 42.57,-5.76 42.42,-5.26 42.15,-4.81 41.88,-4.35 41.51,-3.98 41.14,-3.60 40.69,-3.33 40.25,-3.05 39.74,-2.89 39.24,-2.73 38.72,-2.69 38.19,-2.66 37.67,-2.75 37.15,-2.84 36.67,-3.05 36.19,-3.26 35.77,-3.59 35.36,-3.91 35.03,-4.32 34.70,-4.73 34.48,-5.21 34.26,-5.69 34.16,-6.20 34.06,-6.72 33.82,-8.78 33.58,-10.83 33.35,-14.10 33.12,-17.38 32.73,-20.22 32.35,-23.05 31.53,-25.39 30.70,-27.72 30.80,-28.21 30.90,-28.69 31.12,-29.14 31.33,-29.58 31.64,-29.96 31.96,-30.34 32.35,-30.64 32.75,-30.93 33.21,-31.13 33.66,-31.32 34.15,-31.40 34.64,-31.47 35.13,-31.43 35.62,-31.39 36.09,-31.23 36.56,-31.07 36.97,-30.81 37.39,-30.54 37.73,-30.19 38.07,-29.83 38.32,-29.40 38.56,-28.97 38.70,-28.50 38.83,-28.02 38.85,-27.53 38.87,-27.03 38.58,-25.95 38.30,-24.87 38.02,-20.63 37.74,-16.39 35.88,-11.06 34.03,-5.74 33.97,-5.25 33.92,-4.77 33.75,-4.31 33.58,-3.85 33.30,-3.45 33.03,-3.04 32.67,-2.72 32.30,-2.39 31.87,-2.16 31.44,-1.93 30.97,-1.81 30.50,-1.69 30.01,-1.68 29.52,-1.68 29.05,-1.79 28.57,-1.91 28.14,-2.13 27.70,-2.35 27.34,-2.67 26.97,-2.99 26.69,-3.39 26.41,-3.79 26.23,-4.25 26.05,-4.70 25.99,-5.19 25.93,-5.67 26.10,-7.50 26.26,-9.34 26.24,-12.95 26.21,-16.57 26.10,-20.32 25.99,-24.06 25.82,-27.47 25.65,-30.87 25.80,-31.32 25.95,-31.76 26.21,-32.15 26.46,-32.55 26.81,-32.87 27.15,-33.19 27.56,-33.42 27.97,-33.65 28.42,-33.77 28.87,-33.89 29.34,-33.91 29.81,-33.92 30.27,-33.82 30.73,-33.72 31.15,-33.51 31.57,-33.31 31.93,-33.01 32.29,-32.71 32.56,-32.33 32.84,-31.95 33.02,-31.51 33.20,-31.08 33.27,-30.62 33.33,-30.15 33.29,-29.69 33.25,-29.22 32.69,-27.27 32.13,-25.31 31.35,-21.21 30.57,-17.10 28.83,-11.41 27.09,-5.72 27.13,-5.24 27.17,-4.75 27.10,-4.26 27.02,-3.78 26.83,-3.33 26.64,-2.88 26.35,-2.49 26.06,-2.09 25.68,-1.78 25.30,-1.47 24.86,-1.26 24.42,-1.05 23.94,-0.95 23.46,-0.85 22.97,-0.86 22.48,-0.88 22.01,-1.01 21.54,-1.15 21.12,-1.39 20.69,-1.63 20.34,-1.97 19.98,-2.31 19.72,-2.72 19.46,-3.13 19.30,-3.60 19.14,-4.06 18.75,-4.54 18.36,-5.03 17.53,-8.90 16.70,-12.77 16.14,-18.20 15.58,-23.64 15.12,-26.69 14.66,-29.74 14.78,-30.23 14.90,-30.72 15.13,-31.17 15.36,-31.62 15.70,-32.00 16.03,-32.38 16.44,-32.67 16.86,-32.96 17.33,-33.14 17.80,-33.32 18.30,-33.38 18.80,-33.45 19.31,-33.39 19.81,-33.33 20.28,-33.15 20.75,-32.98 21.17,-32.69 21.59,-32.41 21.93,-32.03 22.26,-31.65 22.50,-31.21 22.74,-30.76 22.86,-30.27 22.98,-29.78 22.99,-29.28 22.99,-28.77 22.71,-26.94 22.42,-25.11 21.96,-22.73 21.50,-20.36 20.92,-15.88 20.33,-11.40 18.34,-7.06 16.34,-2.72 16.29,-2.21 16.23,-1.71 16.05,-1.23 15.87,-0.75 15.59,-0.33 15.30,0.08 14.92,0.42 14.54,0.76 14.09,0.99 13.65,1.23 13.15,1.36 12.66,1.48 12.15,1.49 11.64,1.49 11.15,1.37 10.65,1.25 10.20,1.02 9.75,0.78 9.37,0.45 8.99,0.11 8.70,-0.29 8.40,-0.71 8.22,-1.18 8.04,-1.66 7.97,-2.16 7.91,-2.67 7.49,-4.46 7.08,-6.26 6.82,-11.24 6.56,-16.22 6.04,-23.04 5.52,-29.86 5.64,-30.44 5.76,-31.02 6.01,-31.56 6.26,-32.10 6.64,-32.57 7.01,-33.03 7.49,-33.39 7.96,-33.75 8.51,-33.98 9.06,-34.22 9.65,-34.32 10.24,-34.42 10.83,-34.37 11.43,-34.32 11.99,-34.14 12.56,-33.95 13.06,-33.63 13.57,-33.32 13.98,-32.89 14.40,-32.46 14.70,-31.94 15.00,-31.43 15.16,-30.86 15.33,-30.28 15.36,-29.69 15.38,-29.09 14.91,-28.05 14.43,-27.01 14.16,-24.52 13.88,-22.03 13.55,-18.17 13.23,-14.32 12.56,-11.89 11.89,-9.47 10.22,-7.47 8.55,-5.48 5.85,-5.34 3.15,-5.21 1.88,-8.08 0.62,-10.95 0.38,-13.58 0.14,-16.21 -0.24,-20.38 -0.63,-24.55 -1.48,-28.96 -2.33,-33.37 -2.26,-33.88 -2.20,-34.40 -2.01,-34.88 -1.82,-35.37 -1.52,-35.79 -1.22,-36.22 -0.82,-36.56 -0.43,-36.90 0.02,-37.14 0.48,-37.38 0.99,-37.50 1.50,-37.62 2.02,-37.61 2.54,-37.61 3.04,-37.48 3.55,-37.35 4.01,-37.10 4.46,-36.85 4.85,-36.50 5.24,-36.15 5.53,-35.72 5.82,-35.29 6.00,-34.80 6.18,-34.32 6.24,-33.80 6.29,-33.28 6.21,-32.83 6.13,-32.37 6.04,-29.26 5.96,-26.15 6.02,-22.16 6.08,-18.17 5.86,-14.92 5.65,-11.68 5.24,-8.50 4.83,-5.32 4.47,-2.45 4.11,0.41 4.00,0.89 3.89,1.38 3.67,1.82 3.45,2.27 3.12,2.65 2.80,3.03 2.40,3.32 1.99,3.61 1.53,3.80 1.07,3.99 0.58,4.06 0.08,4.13 -0.40,4.08 -0.90,4.03 -1.37,3.86 -1.84,3.70 -2.25,3.42 -2.67,3.15 -3.01,2.78 -3.35,2.41 -3.59,1.98 -3.83,1.54 -3.96,1.06 -4.09,0.58 -4.10,0.08 -4.11,-0.41 -4.11,-0.41 L -4.11,-0.41 Z"></path></g><g transform="translate(63.73147863663735 19.41824817005545) rotate(0 1 44)" stroke="none"><path fill="#343a40" d="M 2.53,4.55 Q 2.53,4.55 -0.07,5.95 -2.68,7.36 -4.76,8.74 -6.85,10.12 -9.07,11.44 -11.29,12.75 -13.17,14.05 -15.04,15.35 -18.03,17.03 -21.02,18.71 -23.20,20.42 -25.38,22.12 -27.48,23.68 -29.58,25.24 -32.24,26.67 -34.90,28.09 -34.15,31.77 -33.40,35.44 -33.34,37.99 -33.28,40.54 -33.65,44.06 -34.02,47.58 -34.01,50.25 -34.00,52.91 -34.43,55.08 -34.87,57.24 -32.65,59.07 -30.44,60.91 -27.95,63.41 -25.46,65.90 -23.49,67.74 -21.51,69.58 -19.83,71.65 -18.16,73.71 -15.99,74.95 -13.83,76.19 -11.74,77.76 -9.65,79.33 -8.07,81.62 -6.49,83.91 -8.26,82.32 -10.02,80.73 -7.21,80.74 -4.40,80.75 -1.01,80.38 2.37,80.01 5.31,79.90 8.25,79.78 10.62,79.76 12.99,79.73 15.82,79.70 18.64,79.68 20.04,77.05 21.43,74.43 24.71,71.58 28.00,68.74 29.84,65.77 31.69,62.80 33.64,61.30 35.59,59.81 38.74,57.79 41.89,55.76 40.28,57.16 38.67,58.57 39.30,60.88 39.93,63.18 38.34,59.63 36.76,56.09 36.22,52.97 35.69,49.86 34.12,47.39 32.55,44.93 31.75,42.35 30.94,39.77 29.78,37.36 28.62,34.96 27.83,32.91 27.05,30.87 26.49,28.72 25.93,26.58 24.54,23.28 23.15,19.99 19.11,18.98 15.06,17.98 13.49,16.54 11.91,15.10 9.34,13.41 6.78,11.72 3.60,9.80 0.43,7.88 -0.83,8.08 -2.10,8.28 -2.82,7.77 -3.55,7.26 -4.13,6.58 -4.72,5.91 -5.12,5.12 -5.53,4.33 -5.73,3.46 -5.94,2.60 -5.93,1.71 -5.92,0.82 -5.70,-0.03 -5.47,-0.89 -5.05,-1.68 -4.63,-2.46 -4.03,-3.12 -3.44,-3.78 -2.70,-4.28 -1.96,-4.78 -1.13,-5.08 -0.29,-5.39 0.58,-5.49 1.46,-5.59 2.35,-5.47 3.23,-5.35 4.06,-5.03 4.88,-4.71 6.74,-2.85 8.59,-0.99 9.97,0.86 11.34,2.73 13.39,5.21 15.44,7.69 17.21,10.20 18.98,12.71 19.88,14.89 20.78,17.07 20.18,20.09 19.58,23.11 17.21,24.74 14.85,26.36 10.79,25.52 6.74,24.69 4.19,23.16 1.65,21.64 -2.17,20.01 -5.99,18.39 -8.28,18.63 -10.57,18.87 -13.79,21.32 -17.02,23.77 -19.76,25.92 -22.51,28.07 -25.46,30.88 -28.42,33.69 -30.96,36.27 -33.50,38.85 -35.96,42.02 -38.42,45.19 -38.78,45.88 -39.15,46.58 -39.75,47.03 -40.36,47.48 -41.05,47.77 -41.74,48.06 -42.49,48.18 -43.23,48.29 -43.98,48.23 -44.73,48.16 -45.45,47.92 -46.16,47.68 -46.79,47.27 -47.43,46.87 -47.94,46.32 -48.46,45.77 -48.84,45.12 -49.21,44.47 -49.41,43.74 -49.62,43.02 -49.64,42.26 -49.67,41.51 -49.52,40.78 -49.36,40.04 -49.03,39.36 -48.71,38.68 -48.23,38.10 -47.75,37.52 -43.84,36.69 -39.93,35.86 -34.92,33.88 -29.90,31.89 -27.29,30.45 -24.68,29.01 -22.29,27.69 -19.89,26.36 -18.66,25.46 -17.42,24.55 -16.83,24.32 -16.23,24.08 -15.60,23.99 -14.96,23.91 -14.33,23.98 -13.69,24.04 -13.09,24.26 -12.49,24.48 -11.96,24.83 -11.42,25.19 -10.99,25.66 -10.56,26.13 -10.25,26.70 -9.95,27.26 -9.79,27.88 -9.62,28.50 -9.61,29.14 -9.60,29.78 -9.75,30.40 -9.89,31.02 -10.18,31.59 -10.47,32.17 -10.89,32.65 -11.30,33.14 -11.82,33.51 -12.35,33.88 -13.65,35.79 -14.96,37.70 -17.60,40.56 -20.24,43.41 -20.80,44.28 -21.35,45.14 -21.93,45.53 -22.50,45.91 -23.15,46.15 -23.80,46.39 -24.48,46.47 -25.17,46.55 -25.86,46.46 -26.54,46.37 -27.19,46.12 -27.83,45.87 -28.40,45.47 -28.96,45.07 -29.42,44.55 -29.87,44.03 -30.19,43.41 -30.50,42.80 -30.66,42.12 -30.82,41.45 -30.82,40.76 -30.81,40.07 -30.64,39.40 -30.47,38.73 -30.14,38.12 -29.81,37.51 -29.35,36.99 -28.89,36.48 -24.85,33.62 -20.82,30.76 -17.85,28.80 -14.89,26.85 -12.59,25.18 -10.30,23.52 -5.65,23.36 -0.99,23.20 -0.10,28.24 0.77,33.28 -0.86,37.31 -2.50,41.35 -3.89,43.74 -5.28,46.13 -5.55,46.66 -5.81,47.19 -6.20,47.64 -6.59,48.09 -7.07,48.43 -7.55,48.78 -8.10,48.99 -8.65,49.21 -9.24,49.30 -9.82,49.38 -10.41,49.31 -11.00,49.25 -11.56,49.05 -12.12,48.85 -12.61,48.52 -13.10,48.19 -13.50,47.76 -13.90,47.32 -14.19,46.80 -14.47,46.28 -14.62,45.71 -14.78,45.13 -14.78,44.54 -14.79,43.95 -14.66,43.37 -14.53,42.79 -10.54,41.30 -6.54,39.81 -4.67,38.50 -2.80,37.20 1.95,34.51 6.70,31.83 9.09,29.85 11.47,27.88 12.48,27.15 13.49,26.43 13.95,26.14 14.41,25.84 14.92,25.67 15.44,25.49 15.98,25.44 16.52,25.40 17.06,25.48 17.60,25.56 18.10,25.78 18.61,25.99 19.04,26.31 19.48,26.63 19.83,27.05 20.17,27.47 20.41,27.97 20.65,28.46 20.76,28.99 20.87,29.52 20.85,30.07 20.84,30.61 20.69,31.14 20.54,31.66 20.27,32.13 20.00,32.61 19.63,33.00 19.25,33.40 18.04,38.66 16.84,43.92 16.06,46.67 15.29,49.41 15.06,49.88 14.83,50.34 14.49,50.73 14.16,51.13 13.74,51.43 13.32,51.73 12.84,51.92 12.36,52.12 11.85,52.19 11.33,52.26 10.82,52.21 10.30,52.16 9.82,51.98 9.33,51.81 8.90,51.53 8.47,51.24 8.12,50.86 7.77,50.48 7.52,50.03 7.27,49.57 7.13,49.07 7.00,48.57 6.99,48.06 6.98,47.54 7.09,47.04 7.21,46.53 9.40,44.53 11.60,42.53 13.86,40.26 16.13,37.99 18.56,34.70 21.00,31.42 21.37,30.99 21.75,30.57 22.22,30.25 22.68,29.93 23.21,29.73 23.74,29.54 24.31,29.47 24.87,29.40 25.43,29.48 25.99,29.55 26.52,29.75 27.05,29.95 27.51,30.28 27.97,30.60 28.35,31.02 28.72,31.45 28.98,31.95 29.24,32.45 29.38,33.00 29.51,33.55 29.51,34.12 29.50,34.68 29.37,35.23 29.23,35.78 28.96,36.28 28.70,36.78 25.26,40.91 21.83,45.05 19.57,47.47 17.31,49.90 16.39,51.21 15.46,52.53 15.06,52.96 14.66,53.38 14.17,53.70 13.68,54.02 13.13,54.21 12.58,54.40 11.99,54.46 11.41,54.51 10.83,54.42 10.26,54.34 9.72,54.11 9.17,53.89 8.70,53.54 8.23,53.20 7.86,52.75 7.48,52.30 7.22,51.78 6.97,51.25 6.84,50.68 6.72,50.11 6.74,49.52 6.75,48.94 6.91,48.38 7.07,47.81 7.35,47.30 7.64,46.79 8.40,44.22 9.16,41.65 10.56,38.69 11.95,35.74 13.00,33.28 14.04,30.81 14.69,29.70 15.35,28.59 15.65,28.08 15.96,27.56 16.38,27.14 16.80,26.72 17.30,26.41 17.81,26.09 18.38,25.91 18.95,25.73 19.54,25.69 20.13,25.65 20.72,25.76 21.31,25.86 21.85,26.10 22.39,26.34 22.87,26.71 23.34,27.07 23.71,27.54 24.08,28.00 24.32,28.55 24.57,29.09 24.68,29.67 24.79,30.26 24.76,30.85 24.73,31.45 24.56,32.02 24.38,32.58 25.27,33.40 26.15,34.21 26.15,34.84 26.15,35.47 26.00,36.08 25.85,36.70 25.55,37.25 25.26,37.81 24.84,38.28 24.42,38.75 23.91,39.11 23.39,39.47 22.80,39.69 22.21,39.92 21.58,39.99 20.96,40.07 20.33,39.99 19.71,39.92 19.12,39.69 18.53,39.47 18.01,39.11 17.49,38.75 17.07,38.28 16.66,37.81 16.36,37.25 16.07,36.69 15.92,36.08 15.77,35.47 14.42,30.74 13.08,26.01 13.20,23.49 13.33,20.96 14.54,18.56 15.76,16.16 17.97,14.72 20.18,13.28 23.15,13.56 26.11,13.85 28.81,16.27 31.51,18.69 32.60,21.74 33.68,24.79 32.63,29.57 31.57,34.34 28.90,38.55 26.24,42.76 24.93,44.71 23.62,46.66 18.97,47.49 14.31,48.32 12.65,45.89 11.00,43.45 12.27,38.22 13.55,33.00 19.30,31.41 25.06,29.83 26.81,31.54 28.57,33.25 29.52,35.70 30.48,38.14 30.04,40.77 29.60,43.40 29.36,44.11 29.11,44.82 28.70,45.45 28.29,46.08 27.74,46.59 27.20,47.10 26.54,47.47 25.89,47.83 25.17,48.03 24.44,48.23 23.69,48.25 22.94,48.27 22.21,48.11 21.48,47.95 20.81,47.62 20.13,47.29 19.56,46.81 18.98,46.33 18.54,45.72 18.10,45.12 17.82,44.42 17.53,43.73 17.42,42.99 17.31,42.25 17.38,41.50 17.45,40.76 16.60,37.35 15.76,33.94 17.61,31.42 19.46,28.90 24.00,29.88 28.54,30.87 30.27,35.88 31.99,40.90 30.15,45.87 28.31,50.84 27.00,53.40 25.70,55.97 24.35,57.85 23.00,59.72 22.63,60.28 22.26,60.84 21.77,61.30 21.27,61.75 20.69,62.08 20.10,62.40 19.45,62.57 18.80,62.75 18.13,62.76 17.46,62.78 16.80,62.63 16.14,62.48 15.54,62.18 14.94,61.88 14.43,61.45 13.92,61.01 13.52,60.47 13.13,59.92 12.88,59.30 12.63,58.67 12.53,58.01 12.44,57.34 12.51,56.67 12.57,56.01 12.80,55.37 13.02,54.74 14.42,52.91 15.82,51.08 16.93,50.16 18.05,49.24 18.59,48.80 19.14,48.35 19.78,48.04 20.42,47.74 21.11,47.60 21.80,47.45 22.51,47.48 23.22,47.51 23.89,47.71 24.57,47.90 25.19,48.25 25.80,48.61 26.31,49.09 26.82,49.58 27.20,50.18 27.58,50.78 27.80,51.45 28.03,52.12 28.09,52.82 28.15,53.53 28.03,54.23 27.92,54.92 27.64,55.58 27.37,56.23 26.94,56.79 26.52,57.36 27.41,54.63 28.30,51.91 28.87,54.82 29.45,57.74 27.38,62.07 25.31,66.40 23.22,69.23 21.13,72.06 19.47,70.67 17.80,69.28 20.41,66.24 23.02,63.21 23.98,62.31 24.93,61.41 25.55,61.17 26.16,60.92 26.81,60.84 27.46,60.75 28.12,60.82 28.77,60.89 29.39,61.12 30.01,61.34 30.56,61.71 31.10,62.07 31.55,62.56 31.99,63.05 32.30,63.63 32.62,64.21 32.78,64.84 32.95,65.48 32.96,66.14 32.97,66.80 32.82,67.44 32.67,68.08 32.37,68.67 32.07,69.25 31.64,69.75 31.21,70.25 30.67,70.63 30.14,71.01 31.52,69.35 32.91,67.69 31.74,71.02 30.58,74.36 29.05,76.78 27.52,79.20 27.16,79.78 26.81,80.37 26.32,80.85 25.84,81.33 25.25,81.68 24.67,82.03 24.02,82.23 23.36,82.43 22.68,82.47 22.00,82.51 21.33,82.38 20.66,82.26 20.04,81.98 19.41,81.69 18.88,81.27 18.34,80.85 17.92,80.31 17.50,79.77 17.23,79.15 16.95,78.52 16.83,77.85 16.71,77.18 16.75,76.50 16.79,75.82 17.00,75.17 17.21,74.51 19.30,72.42 21.39,70.33 24.54,66.20 27.69,62.07 28.21,61.11 28.72,60.15 29.17,59.67 29.62,59.19 30.16,58.83 30.71,58.47 31.33,58.25 31.95,58.03 32.60,57.96 33.26,57.90 33.91,57.99 34.56,58.09 35.17,58.33 35.77,58.58 36.31,58.96 36.84,59.35 37.26,59.85 37.69,60.35 37.98,60.94 38.27,61.53 38.41,62.17 38.56,62.81 38.54,63.47 38.53,64.12 38.35,64.76 38.18,65.39 37.87,65.96 37.55,66.54 35.62,68.00 33.70,69.46 31.66,71.03 29.62,72.60 27.82,74.23 26.02,75.85 25.46,76.19 24.91,76.53 24.29,76.73 23.67,76.93 23.02,76.97 22.37,77.01 21.72,76.89 21.08,76.78 20.49,76.51 19.89,76.25 19.38,75.85 18.86,75.45 18.46,74.94 18.06,74.43 17.79,73.83 17.52,73.24 17.40,72.60 17.28,71.96 17.32,71.31 17.35,70.66 17.54,70.04 17.74,69.41 18.07,68.86 18.41,68.30 18.86,67.83 19.32,67.37 22.13,64.34 24.94,61.30 27.78,58.53 30.62,55.76 32.41,54.07 34.19,52.38 34.71,52.03 35.23,51.69 35.82,51.47 36.41,51.26 37.03,51.20 37.65,51.14 38.26,51.22 38.88,51.31 39.46,51.54 40.04,51.77 40.55,52.13 41.05,52.50 41.46,52.97 41.87,53.44 42.15,54.00 42.43,54.56 42.56,55.17 42.70,55.78 42.69,56.40 42.68,57.02 42.52,57.63 42.36,58.23 42.06,58.78 41.76,59.32 41.34,59.78 40.92,60.24 38.84,62.24 36.76,64.23 34.83,65.95 32.90,67.67 30.95,68.77 29.00,69.86 25.79,69.02 22.58,68.17 21.07,65.66 19.57,63.15 20.16,59.91 20.74,56.68 21.88,54.49 23.02,52.31 23.33,51.71 23.64,51.10 24.08,50.59 24.52,50.07 25.07,49.68 25.63,49.28 26.26,49.03 26.89,48.78 27.56,48.69 28.23,48.60 28.91,48.67 29.58,48.74 30.22,48.97 30.86,49.20 31.42,49.58 31.99,49.96 32.45,50.46 32.90,50.96 33.23,51.56 33.55,52.15 33.72,52.81 33.90,53.46 33.91,54.14 33.92,54.82 33.77,55.48 33.61,56.14 31.28,58.41 28.94,60.68 25.51,62.86 22.08,65.04 19.76,66.97 17.43,68.90 16.61,69.19 15.78,69.48 15.26,69.82 14.75,70.16 14.17,70.37 13.59,70.58 12.98,70.65 12.37,70.71 11.76,70.63 11.15,70.54 10.57,70.32 10.00,70.09 9.50,69.73 9.00,69.37 8.60,68.91 8.19,68.44 7.92,67.89 7.64,67.34 7.50,66.74 7.36,66.14 7.37,65.52 7.38,64.90 7.54,64.31 7.69,63.71 7.99,63.17 8.28,62.63 8.70,62.18 9.11,61.72 10.85,59.18 12.58,56.65 14.09,54.65 15.59,52.65 16.09,52.19 16.58,51.73 17.17,51.41 17.76,51.08 18.41,50.91 19.06,50.73 19.74,50.72 20.41,50.70 21.07,50.85 21.73,51.00 22.33,51.30 22.93,51.60 23.45,52.04 23.96,52.47 24.35,53.02 24.75,53.57 25.00,54.19 25.25,54.82 25.34,55.48 25.44,56.15 25.37,56.82 25.30,57.49 25.08,58.13 24.85,58.76 24.48,59.32 24.11,59.89 20.79,62.09 17.47,64.30 12.48,67.71 7.49,71.12 5.09,72.42 2.68,73.73 -2.81,72.08 -8.32,70.43 -6.72,67.43 -5.13,64.44 -2.72,64.16 -0.30,63.88 2.37,67.27 5.05,70.66 3.81,73.32 2.56,75.99 -0.42,77.21 -3.42,78.43 -9.10,77.16 -14.77,75.89 -17.13,73.56 -19.49,71.22 -20.65,69.39 -21.81,67.56 -22.20,66.96 -22.60,66.36 -22.84,65.69 -23.08,65.02 -23.15,64.30 -23.22,63.59 -23.12,62.88 -23.02,62.17 -22.75,61.51 -22.49,60.84 -22.07,60.26 -21.65,59.68 -21.10,59.22 -20.56,58.75 -19.92,58.43 -19.28,58.11 -18.58,57.96 -17.88,57.80 -17.16,57.81 -16.45,57.83 -15.76,58.01 -15.06,58.20 -14.44,58.54 -13.81,58.89 -13.28,59.37 -12.76,59.86 -11.03,62.61 -9.30,65.37 -7.56,68.73 -5.81,72.09 -5.47,72.74 -5.13,73.39 -4.96,74.10 -4.78,74.81 -4.78,75.54 -4.78,76.27 -4.96,76.98 -5.13,77.69 -5.48,78.34 -5.82,78.99 -6.30,79.54 -6.79,80.09 -7.39,80.50 -7.99,80.92 -8.68,81.17 -9.36,81.43 -10.09,81.52 -10.81,81.61 -11.54,81.52 -12.27,81.43 -12.95,81.17 -13.63,80.91 -14.24,80.50 -14.84,80.08 -15.32,79.53 -15.81,78.98 -18.27,77.05 -20.74,75.12 -21.26,74.59 -21.79,74.06 -22.17,73.42 -22.56,72.79 -22.78,72.08 -23.00,71.37 -23.04,70.62 -23.08,69.88 -22.95,69.15 -22.81,68.42 -22.51,67.74 -22.20,67.06 -21.74,66.48 -21.28,65.89 -20.70,65.43 -20.11,64.97 -19.43,64.67 -18.75,64.37 -18.02,64.23 -17.29,64.10 -16.55,64.15 -15.80,64.19 -15.09,64.41 -14.38,64.64 -13.75,65.02 -13.11,65.41 -12.06,68.04 -11.00,70.67 -9.48,72.70 -7.95,74.73 -7.48,74.31 -7.01,73.89 -6.45,74.39 -5.89,74.89 -5.46,75.51 -5.03,76.13 -4.76,76.83 -4.50,77.54 -4.41,78.28 -4.32,79.03 -4.41,79.78 -4.50,80.53 -4.77,81.23 -5.03,81.93 -5.46,82.55 -5.89,83.17 -6.45,83.67 -7.02,84.17 -7.68,84.52 -8.35,84.87 -9.08,85.05 -9.81,85.23 -10.57,85.23 -11.32,85.23 -12.05,85.05 -12.78,84.87 -13.45,84.52 -14.11,84.17 -16.12,80.49 -18.12,76.81 -19.36,74.80 -20.60,72.79 -23.11,70.15 -25.63,67.52 -25.99,66.89 -26.35,66.26 -26.55,65.57 -26.75,64.88 -26.78,64.15 -26.80,63.43 -26.66,62.72 -26.51,62.02 -26.20,61.37 -25.88,60.71 -25.43,60.16 -24.97,59.60 -24.39,59.17 -23.81,58.73 -23.14,58.45 -22.48,58.17 -21.77,58.06 -21.05,57.95 -20.33,58.01 -19.61,58.07 -18.93,58.30 -18.24,58.53 -17.63,58.92 -17.03,59.31 -16.53,59.83 -16.03,60.35 -14.75,62.33 -13.47,64.32 -13.12,64.97 -12.77,65.62 -12.59,66.34 -12.41,67.06 -12.40,67.80 -12.40,68.54 -12.57,69.27 -12.74,69.99 -13.09,70.64 -13.43,71.30 -13.92,71.86 -14.40,72.42 -15.01,72.84 -15.62,73.27 -16.31,73.53 -17.00,73.80 -17.74,73.89 -18.47,73.99 -19.21,73.90 -19.95,73.82 -20.64,73.56 -21.34,73.30 -21.95,72.88 -22.56,72.46 -23.06,71.91 -23.55,71.36 -27.05,71.00 -30.56,70.65 -32.46,69.35 -34.37,68.06 -36.17,64.25 -37.97,60.44 -37.12,57.83 -36.27,55.22 -34.03,53.31 -31.79,51.40 -28.42,49.63 -25.05,47.86 -22.87,46.54 -20.70,45.21 -18.78,43.13 -16.86,41.04 -13.41,41.45 -9.97,41.85 -7.42,43.37 -4.86,44.88 -4.53,47.80 -4.19,50.72 -3.94,53.72 -3.68,56.72 -3.49,59.03 -3.30,61.34 -2.99,63.48 -2.67,65.62 -2.21,68.07 -1.74,70.51 -0.63,73.61 0.48,76.70 2.11,75.24 3.75,73.77 6.13,73.21 8.52,72.64 11.11,72.09 13.70,71.54 16.45,71.48 19.19,71.42 21.43,72.41 23.68,73.39 24.15,77.98 24.62,82.58 23.79,84.76 22.97,86.94 20.83,87.92 18.68,88.90 19.53,85.85 20.37,82.81 15.82,80.76 11.28,78.70 14.04,77.10 16.79,75.50 17.24,72.48 17.68,69.47 18.55,67.31 19.41,65.15 20.70,61.96 21.98,58.78 22.95,55.86 23.91,52.94 24.96,50.69 26.00,48.45 25.80,47.15 25.60,45.85 25.81,44.67 26.03,43.49 26.61,42.45 27.19,41.40 28.08,40.60 28.96,39.79 30.06,39.31 31.16,38.83 32.35,38.72 33.54,38.62 34.71,38.90 35.87,39.18 36.88,39.81 37.90,40.45 38.65,41.38 39.41,42.31 39.83,43.43 40.25,44.55 40.29,45.74 40.33,46.94 39.99,48.09 39.65,49.23 38.96,50.21 38.26,51.19 37.30,51.89 36.33,52.60 35.19,52.96 34.05,53.32 32.85,53.30 31.65,53.27 30.53,52.87 29.40,52.46 28.46,51.72 27.52,50.98 26.87,49.97 26.22,48.97 25.92,47.81 25.62,46.65 25.71,45.45 25.80,44.26 26.27,43.16 26.73,42.05 27.53,41.16 28.32,40.26 29.36,39.66 30.39,39.07 31.57,38.83 32.74,38.60 33.93,38.75 35.12,38.91 36.19,39.43 37.27,39.96 38.12,40.80 38.97,41.64 39.51,42.70 40.05,43.77 40.22,44.96 40.39,46.14 40.39,46.14 40.39,46.14 40.16,49.39 39.93,52.64 39.01,55.37 38.10,58.09 36.93,60.45 35.76,62.80 34.74,65.81 33.72,68.82 32.77,70.84 31.82,72.86 30.94,75.60 30.07,78.35 28.05,81.56 26.04,84.78 24.23,86.70 22.41,88.62 20.38,89.68 18.36,90.73 13.57,88.30 8.79,85.88 9.18,82.65 9.57,79.42 12.22,77.81 14.86,76.21 15.17,80.54 15.48,84.88 12.31,85.35 9.14,85.81 6.71,86.36 4.29,86.91 1.00,87.75 -2.27,88.60 -6.34,85.71 -10.41,82.81 -11.08,80.59 -11.75,78.36 -12.52,76.33 -13.29,74.29 -13.84,70.85 -14.38,67.42 -14.95,62.86 -15.51,58.31 -16.30,53.38 -17.09,48.46 -17.92,45.68 -18.75,42.89 -18.79,39.59 -18.83,36.29 -15.97,33.91 -13.10,31.53 -8.88,32.66 -4.66,33.79 -3.77,35.83 -2.89,37.87 -3.24,40.60 -3.60,43.32 -5.44,45.84 -7.28,48.37 -10.70,51.81 -14.12,55.25 -16.56,56.95 -19.01,58.64 -21.09,59.93 -23.18,61.22 -25.03,62.53 -26.88,63.84 -26.53,61.55 -26.18,59.25 -23.38,60.53 -20.57,61.82 -17.02,63.07 -13.47,64.31 -13.12,64.97 -12.77,65.62 -12.59,66.34 -12.41,67.06 -12.40,67.80 -12.40,68.54 -12.57,69.26 -12.74,69.99 -13.09,70.64 -13.43,71.30 -13.91,71.86 -14.40,72.42 -15.01,72.84 -15.62,73.27 -16.31,73.53 -17.00,73.80 -17.74,73.89 -18.47,73.99 -19.21,73.90 -19.95,73.82 -20.64,73.56 -21.34,73.30 -21.95,72.88 -22.56,72.46 -23.05,71.91 -23.55,71.36 -24.59,69.44 -25.63,67.52 -25.99,66.89 -26.35,66.27 -26.55,65.57 -26.75,64.88 -26.78,64.15 -26.80,63.43 -26.66,62.73 -26.51,62.02 -26.20,61.37 -25.88,60.72 -25.43,60.16 -24.97,59.60 -24.39,59.17 -23.81,58.74 -23.14,58.45 -22.48,58.17 -21.77,58.06 -21.05,57.95 -20.33,58.01 -19.61,58.07 -18.93,58.30 -18.24,58.53 -17.64,58.92 -17.03,59.31 -16.53,59.83 -16.03,60.35 -18.39,59.59 -20.74,58.83 -17.61,60.57 -14.48,62.31 -12.61,64.33 -10.75,66.36 -8.88,70.12 -7.01,73.89 -6.45,74.39 -5.89,74.89 -5.46,75.51 -5.03,76.13 -4.76,76.83 -4.50,77.54 -4.41,78.28 -4.32,79.03 -4.41,79.78 -4.50,80.52 -4.77,81.23 -5.03,81.93 -5.46,82.55 -5.89,83.17 -6.45,83.67 -7.02,84.17 -7.68,84.52 -8.35,84.87 -9.08,85.05 -9.81,85.23 -10.56,85.23 -11.32,85.23 -12.05,85.05 -12.78,84.87 -13.45,84.52 -14.11,84.17 -14.07,84.28 -14.03,84.40 -17.01,81.09 -20.00,77.77 -21.46,74.23 -22.93,70.69 -21.83,72.91 -20.74,75.12 -21.26,74.59 -21.79,74.06 -22.17,73.43 -22.56,72.79 -22.78,72.08 -23.00,71.37 -23.04,70.62 -23.08,69.88 -22.95,69.15 -22.82,68.42 -22.51,67.74 -22.20,67.06 -21.74,66.48 -21.28,65.89 -20.70,65.43 -20.11,64.98 -19.43,64.67 -18.75,64.37 -18.02,64.23 -17.29,64.10 -16.55,64.15 -15.80,64.19 -15.09,64.41 -14.38,64.64 -13.75,65.02 -13.11,65.41 -12.41,66.31 -11.70,67.21 -8.76,69.65 -5.81,72.09 -5.47,72.74 -5.13,73.39 -4.96,74.10 -4.78,74.81 -4.78,75.54 -4.78,76.27 -4.96,76.98 -5.13,77.69 -5.47,78.34 -5.82,78.99 -6.30,79.54 -6.79,80.08 -7.39,80.50 -7.99,80.92 -8.68,81.17 -9.36,81.43 -10.09,81.52 -10.81,81.61 -11.54,81.52 -12.26,81.43 -12.95,81.17 -13.63,80.91 -14.23,80.50 -14.84,80.08 -15.32,79.53 -15.81,78.98 -16.35,77.28 -16.89,75.57 -18.30,73.56 -19.70,71.55 -20.76,69.55 -21.81,67.56 -22.20,66.96 -22.60,66.37 -22.84,65.69 -23.08,65.02 -23.15,64.30 -23.22,63.59 -23.12,62.88 -23.02,62.17 -22.75,61.51 -22.49,60.84 -22.07,60.26 -21.65,59.68 -21.10,59.22 -20.56,58.75 -19.92,58.43 -19.28,58.11 -18.58,57.96 -17.88,57.80 -17.16,57.81 -16.45,57.83 -15.76,58.01 -15.07,58.20 -14.44,58.54 -13.81,58.89 -13.28,59.37 -12.76,59.86 -11.21,62.59 -9.66,65.33 -7.54,67.75 -5.42,70.16 -3.60,72.25 -1.77,74.35 0.05,73.13 1.88,71.91 -0.07,68.36 -2.03,64.80 0.06,63.76 2.15,62.72 4.88,60.74 7.60,58.77 9.62,56.97 11.63,55.18 13.61,53.91 15.59,52.65 16.09,52.19 16.58,51.73 17.17,51.41 17.76,51.08 18.41,50.91 19.06,50.73 19.74,50.72 20.41,50.70 21.07,50.85 21.73,51.00 22.33,51.30 22.93,51.60 23.44,52.04 23.96,52.47 24.35,53.02 24.75,53.57 25.00,54.19 25.25,54.82 25.34,55.48 25.44,56.15 25.37,56.82 25.30,57.49 25.08,58.13 24.85,58.76 24.48,59.32 24.11,59.89 23.28,60.70 22.45,61.51 20.21,63.21 17.98,64.91 16.88,67.20 15.78,69.48 15.27,69.82 14.75,70.16 14.17,70.37 13.59,70.58 12.98,70.65 12.37,70.71 11.76,70.63 11.15,70.54 10.57,70.32 10.00,70.09 9.50,69.73 9.00,69.37 8.60,68.91 8.19,68.44 7.92,67.89 7.64,67.34 7.50,66.74 7.36,66.14 7.37,65.52 7.38,64.91 7.54,64.31 7.69,63.71 7.99,63.17 8.28,62.63 8.70,62.18 9.11,61.72 10.25,61.47 11.38,61.23 13.68,59.19 15.97,57.15 19.50,54.73 23.02,52.31 23.33,51.71 23.64,51.10 24.08,50.59 24.52,50.07 25.07,49.68 25.63,49.28 26.26,49.03 26.89,48.78 27.56,48.69 28.23,48.60 28.91,48.67 29.58,48.74 30.22,48.97 30.86,49.20 31.42,49.58 31.99,49.96 32.44,50.46 32.90,50.96 33.23,51.55 33.55,52.15 33.72,52.81 33.90,53.46 33.91,54.14 33.92,54.82 33.77,55.48 33.61,56.14 31.35,59.00 29.09,61.86 27.01,61.04 24.94,60.22 27.30,58.73 29.65,57.23 31.92,54.80 34.19,52.38 34.71,52.03 35.23,51.69 35.82,51.48 36.40,51.26 37.03,51.20 37.65,51.14 38.26,51.22 38.88,51.31 39.46,51.54 40.04,51.77 40.55,52.13 41.05,52.50 41.46,52.97 41.87,53.44 42.15,54.00 42.43,54.56 42.56,55.17 42.70,55.78 42.69,56.40 42.68,57.02 42.52,57.63 42.36,58.23 42.06,58.78 41.76,59.32 41.34,59.78 40.92,60.24 39.36,61.33 37.80,62.41 35.52,65.18 33.24,67.95 29.63,71.90 26.02,75.85 25.46,76.19 24.91,76.53 24.29,76.73 23.67,76.92 23.02,76.97 22.37,77.01 21.72,76.89 21.08,76.78 20.49,76.51 19.89,76.25 19.38,75.85 18.87,75.45 18.46,74.94 18.06,74.43 17.79,73.83 17.52,73.24 17.40,72.60 17.28,71.96 17.32,71.31 17.35,70.66 17.54,70.04 17.74,69.41 18.07,68.86 18.41,68.30 18.86,67.83 19.32,67.37 21.14,65.78 22.97,64.18 25.84,62.16 28.72,60.15 29.17,59.67 29.62,59.19 30.16,58.83 30.71,58.47 31.33,58.25 31.95,58.03 32.60,57.96 33.26,57.90 33.91,57.99 34.56,58.09 35.17,58.33 35.77,58.58 36.31,58.96 36.84,59.35 37.26,59.85 37.69,60.35 37.98,60.94 38.27,61.53 38.41,62.17 38.56,62.81 38.54,63.47 38.53,64.12 38.35,64.76 38.18,65.39 37.87,65.96 37.55,66.54 36.90,67.40 36.26,68.27 34.33,71.23 32.40,74.20 29.96,76.70 27.52,79.20 27.16,79.78 26.81,80.37 26.32,80.85 25.84,81.33 25.25,81.68 24.67,82.03 24.02,82.23 23.36,82.43 22.68,82.47 22.00,82.51 21.33,82.38 20.66,82.26 20.04,81.98 19.41,81.69 18.88,81.27 18.34,80.85 17.92,80.31 17.50,79.77 17.23,79.15 16.95,78.52 16.83,77.85 16.71,77.18 16.75,76.50 16.79,75.82 17.00,75.17 17.21,74.51 18.27,73.68 19.33,72.84 21.59,69.81 23.84,66.78 24.39,64.10 24.93,61.41 25.55,61.17 26.16,60.92 26.81,60.84 27.46,60.75 28.12,60.82 28.77,60.89 29.39,61.12 30.01,61.34 30.56,61.71 31.10,62.07 31.55,62.56 31.99,63.05 32.30,63.63 32.62,64.21 32.78,64.84 32.95,65.48 32.96,66.14 32.97,66.80 32.82,67.44 32.67,68.08 32.37,68.67 32.07,69.25 31.64,69.75 31.21,70.25 30.67,70.63 30.14,71.01 29.12,71.76 28.10,72.50 25.84,73.73 23.58,74.95 19.61,76.61 15.63,78.27 13.49,77.53 11.35,76.79 11.83,71.39 12.31,66.00 15.27,61.89 18.24,57.79 18.14,53.52 18.05,49.24 18.59,48.80 19.14,48.35 19.78,48.04 20.42,47.74 21.11,47.60 21.80,47.45 22.51,47.48 23.21,47.51 23.89,47.70 24.57,47.90 25.19,48.25 25.80,48.61 26.31,49.09 26.82,49.58 27.20,50.18 27.58,50.78 27.80,51.45 28.03,52.12 28.09,52.82 28.15,53.53 28.03,54.23 27.92,54.92 27.64,55.57 27.37,56.23 26.94,56.79 26.52,57.36 24.76,58.54 23.00,59.72 22.63,60.28 22.26,60.84 21.77,61.30 21.28,61.75 20.69,62.08 20.10,62.40 19.45,62.57 18.80,62.75 18.13,62.76 17.46,62.78 16.80,62.63 16.14,62.48 15.54,62.18 14.94,61.88 14.43,61.45 13.92,61.01 13.52,60.47 13.13,59.92 12.88,59.30 12.63,58.67 12.53,58.01 12.44,57.34 12.51,56.68 12.57,56.01 12.80,55.37 13.02,54.74 14.41,52.87 15.79,51.00 16.85,48.82 17.92,46.65 18.94,44.51 19.96,42.37 19.77,39.78 19.58,37.19 23.48,36.85 27.38,36.52 28.49,39.96 29.60,43.40 29.36,44.11 29.11,44.82 28.70,45.45 28.29,46.08 27.75,46.59 27.20,47.10 26.54,47.47 25.89,47.83 25.17,48.03 24.44,48.23 23.69,48.25 22.95,48.27 22.21,48.11 21.48,47.95 20.81,47.62 20.13,47.29 19.56,46.81 18.99,46.33 18.54,45.72 18.10,45.12 17.82,44.43 17.53,43.73 17.42,42.99 17.31,42.25 17.38,41.50 17.45,40.76 17.22,39.11 16.98,37.47 18.92,39.56 20.86,41.66 19.41,39.89 17.96,38.12 19.50,34.83 21.03,31.53 21.74,29.45 22.45,27.37 23.31,24.90 24.18,22.43 24.11,25.27 24.04,28.12 25.10,31.17 26.15,34.21 26.15,34.84 26.15,35.47 26.00,36.08 25.85,36.69 25.55,37.25 25.26,37.81 24.84,38.28 24.42,38.75 23.91,39.11 23.39,39.47 22.80,39.69 22.21,39.92 21.58,39.99 20.96,40.07 20.33,39.99 19.71,39.92 19.12,39.69 18.53,39.47 18.01,39.11 17.49,38.75 17.07,38.28 16.66,37.81 16.36,37.25 16.07,36.70 15.92,36.08 15.77,35.47 16.22,34.89 16.67,34.31 16.01,31.45 15.35,28.59 15.65,28.08 15.96,27.56 16.38,27.14 16.80,26.72 17.30,26.41 17.81,26.09 18.38,25.91 18.94,25.73 19.54,25.69 20.13,25.65 20.72,25.76 21.31,25.86 21.85,26.10 22.39,26.34 22.87,26.71 23.34,27.07 23.71,27.54 24.08,28.00 24.32,28.55 24.57,29.09 24.68,29.67 24.79,30.26 24.76,30.85 24.73,31.45 24.56,32.01 24.38,32.58 23.51,33.62 22.64,34.66 21.44,37.26 20.24,39.87 19.07,42.06 17.90,44.26 16.68,48.39 15.46,52.53 15.06,52.96 14.66,53.38 14.17,53.70 13.68,54.02 13.13,54.21 12.58,54.40 12.00,54.46 11.41,54.51 10.83,54.42 10.26,54.34 9.72,54.11 9.18,53.89 8.70,53.55 8.23,53.20 7.86,52.75 7.48,52.30 7.23,51.78 6.97,51.25 6.84,50.68 6.72,50.11 6.74,49.52 6.75,48.94 6.91,48.38 7.07,47.81 7.35,47.30 7.64,46.79 9.24,45.24 10.84,43.69 12.75,41.79 14.65,39.89 17.82,35.65 21.00,31.42 21.37,30.99 21.75,30.57 22.22,30.25 22.68,29.93 23.21,29.73 23.74,29.54 24.30,29.47 24.87,29.40 25.43,29.48 25.99,29.55 26.52,29.75 27.05,29.95 27.51,30.27 27.97,30.60 28.35,31.02 28.72,31.45 28.98,31.95 29.24,32.45 29.38,33.00 29.51,33.55 29.51,34.12 29.50,34.68 29.37,35.23 29.23,35.78 28.96,36.28 28.70,36.78 27.14,38.14 25.59,39.50 23.89,41.69 22.20,43.87 18.74,46.64 15.29,49.41 15.06,49.88 14.83,50.34 14.49,50.73 14.16,51.13 13.74,51.43 13.32,51.73 12.84,51.92 12.36,52.12 11.85,52.19 11.33,52.26 10.82,52.21 10.31,52.16 9.82,51.98 9.33,51.81 8.90,51.53 8.47,51.24 8.12,50.86 7.77,50.48 7.52,50.03 7.27,49.57 7.13,49.07 7.00,48.57 6.99,48.06 6.98,47.54 7.09,47.04 7.21,46.53 8.13,43.84 9.05,41.14 10.12,37.80 11.20,34.46 12.34,30.44 13.49,26.43 13.95,26.14 14.41,25.84 14.92,25.67 15.44,25.49 15.98,25.44 16.52,25.40 17.06,25.48 17.60,25.56 18.10,25.77 18.60,25.99 19.04,26.31 19.48,26.63 19.83,27.05 20.17,27.47 20.41,27.96 20.65,28.46 20.76,28.99 20.87,29.52 20.85,30.07 20.84,30.61 20.69,31.14 20.54,31.66 20.27,32.13 20.00,32.61 19.63,33.00 19.25,33.40 18.06,33.92 16.87,34.44 14.08,36.74 11.29,39.04 6.58,42.37 1.86,45.70 -1.70,45.91 -5.28,46.13 -5.55,46.66 -5.81,47.19 -6.20,47.64 -6.59,48.09 -7.07,48.43 -7.55,48.78 -8.10,48.99 -8.65,49.21 -9.24,49.29 -9.82,49.38 -10.41,49.31 -11.00,49.25 -11.56,49.05 -12.12,48.85 -12.61,48.52 -13.10,48.19 -13.50,47.76 -13.90,47.32 -14.19,46.80 -14.47,46.28 -14.62,45.71 -14.77,45.13 -14.78,44.54 -14.79,43.95 -14.66,43.37 -14.53,42.79 -13.10,40.40 -11.66,38.01 -10.22,33.46 -8.77,28.91 -6.67,30.18 -4.57,31.45 -6.93,33.16 -9.29,34.86 -11.87,36.77 -14.44,38.69 -17.90,41.91 -21.35,45.14 -21.93,45.52 -22.50,45.91 -23.15,46.15 -23.80,46.39 -24.48,46.47 -25.17,46.55 -25.86,46.46 -26.54,46.37 -27.19,46.12 -27.83,45.87 -28.40,45.47 -28.96,45.07 -29.42,44.55 -29.87,44.03 -30.19,43.41 -30.50,42.80 -30.66,42.12 -30.82,41.45 -30.82,40.76 -30.81,40.07 -30.64,39.40 -30.47,38.73 -30.14,38.12 -29.81,37.51 -29.35,36.99 -28.89,36.48 -27.13,34.87 -25.38,33.26 -22.84,30.97 -20.31,28.68 -18.87,26.62 -17.42,24.55 -16.83,24.32 -16.23,24.08 -15.60,23.99 -14.96,23.91 -14.33,23.98 -13.69,24.04 -13.09,24.26 -12.49,24.48 -11.96,24.83 -11.42,25.19 -10.99,25.66 -10.56,26.13 -10.25,26.70 -9.95,27.26 -9.79,27.88 -9.62,28.50 -9.61,29.14 -9.60,29.78 -9.75,30.40 -9.89,31.02 -10.18,31.59 -10.47,32.17 -10.89,32.65 -11.30,33.14 -11.82,33.51 -12.34,33.88 -13.66,34.63 -14.98,35.37 -17.25,36.59 -19.51,37.80 -22.45,39.62 -25.39,41.44 -29.22,43.70 -33.06,45.97 -36.10,46.28 -39.15,46.58 -39.75,47.03 -40.36,47.48 -41.05,47.77 -41.74,48.06 -42.49,48.18 -43.23,48.29 -43.98,48.23 -44.73,48.16 -45.44,47.92 -46.16,47.68 -46.79,47.27 -47.43,46.87 -47.94,46.32 -48.46,45.77 -48.83,45.12 -49.21,44.47 -49.41,43.74 -49.62,43.02 -49.64,42.26 -49.67,41.51 -49.52,40.78 -49.36,40.04 -49.03,39.36 -48.71,38.68 -48.23,38.10 -47.75,37.52 -47.00,36.82 -46.24,36.13 -44.02,33.31 -41.81,30.49 -39.14,27.93 -36.46,25.37 -33.26,22.40 -30.05,19.43 -27.76,17.19 -25.48,14.95 -23.19,12.75 -20.90,10.54 -18.02,8.66 -15.13,6.77 -11.53,5.79 -7.93,4.80 -4.57,5.55 -1.20,6.30 1.11,7.14 3.44,7.97 5.94,8.94 8.45,9.91 10.29,11.56 12.13,13.20 8.85,15.95 5.58,18.70 4.07,16.39 2.56,14.08 0.23,11.18 -2.10,8.28 -2.82,7.77 -3.55,7.26 -4.13,6.58 -4.72,5.91 -5.12,5.12 -5.53,4.33 -5.73,3.46 -5.94,2.60 -5.93,1.71 -5.92,0.82 -5.70,-0.03 -5.47,-0.89 -5.05,-1.68 -4.63,-2.46 -4.03,-3.12 -3.44,-3.78 -2.70,-4.28 -1.96,-4.78 -1.13,-5.08 -0.29,-5.39 0.58,-5.49 1.46,-5.59 2.35,-5.47 3.23,-5.35 4.06,-5.03 4.88,-4.71 3.57,-4.84 2.26,-4.98 5.15,-4.56 8.05,-4.14 10.40,-2.75 12.74,-1.35 15.82,0.50 18.90,2.36 20.51,4.11 22.12,5.85 24.48,6.18 26.84,6.50 28.94,7.15 31.03,7.80 32.59,9.27 34.15,10.74 35.61,12.95 37.07,15.16 38.02,17.21 38.98,19.25 40.14,23.11 41.29,26.98 42.17,29.47 43.06,31.97 44.22,34.59 45.38,37.22 46.56,39.42 47.75,41.63 48.31,44.04 48.86,46.45 49.28,49.30 49.69,52.14 50.95,54.29 52.20,56.44 52.56,59.61 52.91,62.78 50.81,65.25 48.72,67.72 46.31,69.67 43.91,71.63 41.79,73.32 39.67,75.01 37.04,78.09 34.41,81.16 33.10,83.02 31.79,84.88 30.35,86.72 28.90,88.56 27.41,90.18 25.92,91.80 22.28,93.06 18.64,94.31 15.83,94.29 13.01,94.26 10.69,94.25 8.37,94.23 6.02,94.29 3.67,94.34 0.92,94.78 -1.83,95.21 -4.13,95.21 -6.43,95.22 -9.25,95.09 -12.08,94.96 -14.22,94.25 -16.37,93.54 -17.60,91.50 -18.84,89.45 -22.48,87.03 -26.13,84.62 -27.59,82.76 -29.04,80.91 -31.39,79.15 -33.74,77.40 -35.93,75.09 -38.11,72.78 -40.30,70.79 -42.48,68.80 -44.27,67.35 -46.07,65.89 -47.52,61.93 -48.98,57.97 -48.48,55.32 -47.98,52.66 -47.90,50.48 -47.82,48.30 -47.31,45.97 -46.79,43.64 -46.75,41.22 -46.70,38.81 -46.76,35.38 -46.82,31.95 -46.76,27.84 -46.69,23.73 -44.97,21.52 -43.24,19.31 -39.68,17.02 -36.11,14.72 -33.47,13.29 -30.82,11.86 -28.47,10.35 -26.11,8.85 -23.51,7.72 -20.91,6.59 -18.69,5.14 -16.47,3.69 -14.48,2.60 -12.49,1.51 -10.08,-0.04 -7.66,-1.61 -5.09,-3.08 -2.53,-4.55 -1.94,-4.79 -1.36,-5.02 -0.74,-5.11 -0.12,-5.20 0.50,-5.14 1.12,-5.08 1.71,-4.87 2.31,-4.66 2.83,-4.32 3.36,-3.98 3.78,-3.52 4.21,-3.06 4.52,-2.51 4.82,-1.96 4.99,-1.35 5.15,-0.75 5.17,-0.12 5.18,0.50 5.05,1.11 4.91,1.73 4.63,2.29 4.35,2.85 3.95,3.33 3.54,3.81 3.03,4.18 2.53,4.55 2.53,4.55 L 2.53,4.55 Z"></path></g><g transform="translate(79.73147863663735 30.41824817005545) rotate(0 4 6.5)" stroke="none"><path fill="#1e1e1e" d="M 4.28,-2.38 Q 4.28,-2.38 5.71,0.21 7.14,2.80 8.39,5.07 9.64,7.35 10.79,9.13 11.93,10.92 12.15,11.49 12.38,12.07 12.45,12.68 12.53,13.30 12.45,13.91 12.38,14.52 12.16,15.10 11.94,15.68 11.59,16.19 11.24,16.70 10.78,17.11 10.32,17.52 9.77,17.81 9.23,18.10 8.63,18.25 8.03,18.39 7.41,18.40 6.79,18.40 6.19,18.25 5.59,18.10 5.04,17.82 4.50,17.53 4.03,17.12 3.57,16.71 3.22,16.20 2.86,15.70 1.51,12.20 0.16,8.70 -1.32,6.46 -2.81,4.22 -3.52,3.51 -4.23,2.79 -4.50,2.24 -4.77,1.70 -4.91,1.10 -5.04,0.50 -5.03,-0.10 -5.02,-0.71 -4.86,-1.30 -4.70,-1.89 -4.40,-2.43 -4.11,-2.96 -3.69,-3.41 -3.28,-3.86 -2.77,-4.20 -2.26,-4.53 -1.68,-4.74 -1.11,-4.94 -0.50,-5.00 0.10,-5.06 0.70,-4.98 1.31,-4.89 1.88,-4.66 2.44,-4.44 2.94,-4.08 3.44,-3.72 3.83,-3.25 4.23,-2.79 4.53,-0.62 4.83,1.54 4.45,2.27 4.08,3.00 3.49,3.57 2.91,4.15 2.17,4.50 1.43,4.86 0.61,4.96 -0.19,5.06 -0.99,4.90 -1.80,4.73 -2.51,4.32 -3.22,3.91 -3.76,3.29 -4.30,2.68 -4.61,1.92 -4.93,1.16 -4.99,0.34 -5.04,-0.47 -4.84,-1.26 -4.63,-2.05 -4.18,-2.74 -3.73,-3.42 -3.08,-3.93 -2.44,-4.44 -1.67,-4.71 -0.89,-4.99 -0.07,-5.00 0.74,-5.01 1.52,-4.76 2.30,-4.51 2.96,-4.02 3.62,-3.54 4.09,-2.87 4.56,-2.19 4.80,-1.41 5.03,-0.62 5.00,0.19 4.96,1.01 4.67,1.78 4.38,2.54 3.86,3.18 3.34,3.81 2.64,4.24 1.94,4.68 1.15,4.87 0.35,5.05 -0.46,4.98 -1.28,4.90 -2.03,4.57 -2.78,4.24 -3.38,3.68 -3.98,3.13 -4.38,2.41 -4.78,1.69 -4.92,0.88 -5.07,0.07 -4.65,1.43 -4.23,2.79 -4.50,2.24 -4.77,1.70 -4.91,1.10 -5.04,0.50 -5.03,-0.10 -5.02,-0.71 -4.86,-1.30 -4.70,-1.89 -4.40,-2.43 -4.11,-2.96 -3.69,-3.41 -3.28,-3.86 -2.77,-4.20 -2.26,-4.53 -1.68,-4.74 -1.11,-4.94 -0.50,-5.00 0.10,-5.06 0.70,-4.98 1.31,-4.89 1.88,-4.66 2.44,-4.44 2.94,-4.08 3.43,-3.72 3.83,-3.25 4.23,-2.79 4.83,-2.00 5.44,-1.21 7.08,1.27 8.72,3.77 10.33,7.34 11.93,10.92 12.15,11.49 12.38,12.07 12.45,12.68 12.53,13.30 12.45,13.91 12.38,14.52 12.16,15.10 11.94,15.68 11.59,16.19 11.24,16.70 10.78,17.11 10.32,17.52 9.77,17.81 9.23,18.10 8.63,18.25 8.03,18.39 7.41,18.40 6.79,18.40 6.19,18.25 5.59,18.10 5.04,17.82 4.50,17.53 4.03,17.12 3.57,16.71 3.22,16.21 2.87,15.70 1.85,13.84 0.84,11.99 -0.27,9.77 -1.39,7.54 -2.83,4.96 -4.28,2.38 -4.50,1.83 -4.72,1.28 -4.81,0.70 -4.90,0.11 -4.84,-0.47 -4.78,-1.05 -4.58,-1.61 -4.39,-2.17 -4.06,-2.66 -3.74,-3.16 -3.31,-3.56 -2.87,-3.96 -2.36,-4.25 -1.84,-4.54 -1.27,-4.69 -0.70,-4.85 -0.11,-4.86 0.47,-4.87 1.05,-4.75 1.62,-4.62 2.15,-4.36 2.68,-4.09 3.13,-3.71 3.59,-3.33 3.93,-2.85 4.28,-2.37 4.28,-2.38 L 4.28,-2.38 Z"></path></g><g transform="translate(72.73147863663735 42.41824817005545) rotate(0 0.00004999999998744897 0.00005000000000165983)" stroke="none"><path fill="#1e1e1e" d="M 3.14,-3.14 Q 3.14,-3.14 3.55,-2.55 3.97,-1.97 4.18,-1.28 4.40,-0.59 4.38,0.11 4.36,0.83 4.11,1.51 3.86,2.18 3.41,2.74 2.96,3.30 2.36,3.69 1.75,4.08 1.05,4.25 0.36,4.42 -0.35,4.36 -1.07,4.31 -1.73,4.02 -2.39,3.74 -2.92,3.26 -3.46,2.78 -3.81,2.15 -4.16,1.53 -4.30,0.82 -4.43,0.11 -4.34,-0.59 -4.24,-1.30 -3.92,-1.94 -3.60,-2.59 -3.09,-3.09 -2.59,-3.60 -1.94,-3.92 -1.30,-4.24 -0.59,-4.34 0.12,-4.43 0.82,-4.30 1.53,-4.16 2.15,-3.81 2.78,-3.46 3.26,-2.92 3.74,-2.39 4.02,-1.73 4.31,-1.07 4.36,-0.35 4.42,0.36 4.25,1.05 4.07,1.75 3.69,2.36 3.30,2.96 2.74,3.41 2.18,3.86 1.51,4.11 0.83,4.36 0.11,4.38 -0.60,4.40 -1.28,4.18 -1.97,3.97 -2.55,3.55 -3.14,3.13 -3.14,3.14 -3.14,3.14 -3.47,2.71 -3.80,2.29 -4.02,1.80 -4.24,1.32 -4.33,0.79 -4.43,0.26 -4.40,-0.26 -4.36,-0.80 -4.20,-1.31 -4.04,-1.82 -3.77,-2.28 -3.49,-2.73 -3.11,-3.11 -2.73,-3.49 -2.28,-3.77 -1.82,-4.05 -1.31,-4.20 -0.80,-4.36 -0.26,-4.40 0.26,-4.43 0.79,-4.33 1.32,-4.24 1.80,-4.02 2.29,-3.80 2.71,-3.47 3.14,-3.14 3.14,-3.14 L 3.14,-3.14 Z"></path></g></svg>