<svg version="1.1" xmlns="http://www.w3.org/2000/svg" viewBox="0 0 78.25966814926232 83.9292565542197" width="234.77900444778697" height="251.78776966265912" filter="invert(93%) hue-rotate(180deg)">
  <!-- svg-source:excalidraw -->
  
  <defs>
    <style class="style-fonts">
      
    </style>
    
  </defs>
  <g stroke-linecap="round" transform="translate(31.231584877319392 6.6043989062222295) rotate(39.680342962402314 6.7038730495529535 35.62598576907365)"><path d="M3.35 0 C4.63 1.24, 5.98 0.6, 10.06 0 C12.37 -0.93, 16.54 -1.85, 13.41 3.35 C14.16 29.7, 15.27 51.51, 13.41 67.9 C15.63 73.11, 11.64 69.5, 10.06 71.25 C8.54 72.11, 4.73 70.19, 3.35 71.25 C2.2 67.87, 0.94 67.3, 0 67.9 C0.9 42.45, 2.99 23.97, 0 3.35 C-2.39 -1.93, -0.76 -0.87, 3.35 0" stroke="none" stroke-width="0" fill="#ff8787"></path><path d="M3.35 0 C5.58 0.18, 7.48 0.59, 10.06 0 M3.35 0 C5.53 -0.17, 7.98 0.12, 10.06 0 M10.06 0 C13.95 -1.72, 13.61 0.36, 13.41 3.35 M10.06 0 C13 1.91, 13.96 -0.1, 13.41 3.35 M13.41 3.35 C14.13 23.09, 14.45 40.74, 13.41 67.9 M13.41 3.35 C12.85 23.1, 14.21 42.57, 13.41 67.9 M13.41 67.9 C14.78 68.3, 12.28 71.41, 10.06 71.25 M13.41 67.9 C15.42 70.73, 12.39 70.57, 10.06 71.25 M10.06 71.25 C7.51 71.24, 6.28 70.87, 3.35 71.25 M10.06 71.25 C7.6 71.41, 5.3 71.11, 3.35 71.25 M3.35 71.25 C-0.09 72.18, -0.95 68.76, 0 67.9 M3.35 71.25 C0.35 72.21, 1.36 68.13, 0 67.9 M0 67.9 C-2.01 56.25, 0.28 41.13, 0 3.35 M0 67.9 C-1.55 45.99, -1.47 24.7, 0 3.35 M0 3.35 C-0.72 0.92, 1.39 -0.06, 3.35 0 M0 3.35 C0.63 2.57, 3.4 0.84, 3.35 0" stroke="#1e1e1e" stroke-width="2" fill="none"></path></g><g stroke-linecap="round" transform="translate(32.4066149881005 5.317124529552871) rotate(318.44922668509304 6.723219086530662 36.33196218933574)"><path d="M3.36 0 C6.01 -0.54, 6.8 -1.18, 10.08 0 C10.85 3.38, 10.69 2.59, 13.45 3.36 C10.17 25.47, 13.49 46.25, 13.45 69.3 C14.09 74.61, 14.07 74.25, 10.08 72.66 C7.07 72.79, 4.21 71.98, 3.36 72.66 C2.83 75.43, -3.4 68.57, 0 69.3 C-1.72 49.44, 0.93 22.52, 0 3.36 C0.84 -1.55, 4.05 1.62, 3.36 0" stroke="none" stroke-width="0" fill="#ff8787"></path><path d="M3.36 0 C5.39 -0.2, 7.37 -0.2, 10.08 0 M3.36 0 C6.13 0.1, 8.4 0.12, 10.08 0 M10.08 0 C11.39 -0.82, 13.13 2.05, 13.45 3.36 M10.08 0 C14.23 -1.98, 13.68 0.24, 13.45 3.36 M13.45 3.36 C12.94 25.13, 15.83 46.96, 13.45 69.3 M13.45 3.36 C13.12 23.56, 13.72 43.9, 13.45 69.3 M13.45 69.3 C12.21 72.39, 13.81 73.82, 10.08 72.66 M13.45 69.3 C15.02 69.43, 12.32 72.85, 10.08 72.66 M10.08 72.66 C7.28 72.58, 5.41 72.34, 3.36 72.66 M10.08 72.66 C8.52 72.8, 7.34 72.73, 3.36 72.66 M3.36 72.66 C0.05 73.5, -1.19 70.65, 0 69.3 M3.36 72.66 C-0.27 73.73, -1.09 69.96, 0 69.3 M0 69.3 C-2.02 49.91, 1.15 32.4, 0 3.36 M0 69.3 C-0.48 55.03, 0.28 40.91, 0 3.36 M0 3.36 C-1.94 1.08, -0.66 1.17, 3.36 0 M0 3.36 C-0.82 0.89, 1.44 -0.06, 3.36 0" stroke="#1e1e1e" stroke-width="4" fill="none"></path></g><g stroke-linecap="round" transform="translate(32.14514313983295 10.824698735567608) rotate(39.08499259782709 4.715567320486912 31.774628237901823)"><path d="M2.36 0 C3.84 -0.34, 5.52 -0.08, 7.07 0 C10.43 2.97, 9.58 4.24, 9.43 2.36 C11.81 15.41, 12.21 29.01, 9.43 61.19 C12.26 64.49, 7.42 60.11, 7.07 63.55 C5.82 64.45, 4.06 63.65, 2.36 63.55 C2.38 63.25, -1.81 62.75, 0 61.19 C-0.8 47.79, 0.38 32.63, 0 2.36 C-1.23 -1.29, -2.78 -3.05, 2.36 0" stroke="none" stroke-width="0" fill="#ff8787"></path><path d="M2.36 0 C3.92 -0.49, 5.28 -0.17, 7.07 0 M2.36 0 C3.65 -0.2, 5.29 0.07, 7.07 0 M7.07 0 C8.42 -1.58, 8.8 2.44, 9.43 2.36 M7.07 0 C10.5 1.74, 11.72 0.72, 9.43 2.36 M9.43 2.36 C8.78 22.71, 7.02 42.35, 9.43 61.19 M9.43 2.36 C8.04 17.87, 9.7 34.22, 9.43 61.19 M9.43 61.19 C9.2 64.01, 10.53 63.16, 7.07 63.55 M9.43 61.19 C10.81 61.02, 8.23 65.31, 7.07 63.55 M7.07 63.55 C6.16 63.17, 5.17 63.9, 2.36 63.55 M7.07 63.55 C5.67 63.79, 4.19 63.55, 2.36 63.55 M2.36 63.55 C-0.21 64.17, -1.6 64.47, 0 61.19 M2.36 63.55 C-0.81 64.52, -2.24 60.88, 0 61.19 M0 61.19 C-0.96 48.26, -1.65 34.14, 0 2.36 M0 61.19 C-0.22 46.96, -0.49 34.47, 0 2.36 M0 2.36 C-1.52 0.74, 1.81 1.16, 2.36 0 M0 2.36 C2.01 3.01, 0.33 0.21, 2.36 0" stroke="transparent" stroke-width="2" fill="none"></path></g></svg>